<svg id="Layer_1" data-name="Layer 1" xmlns="http://www.w3.org/2000/svg" xmlns:xlink="http://www.w3.org/1999/xlink" viewBox="0 0 1000 263.33">
  <defs>
    <style>
      .cls-1 {
        fill: #fff;
      }

      .cls-2 {
        fill: #092b50;
      }

      .cls-3 {
        fill: none;
        stroke: #0b2852;
        stroke-linecap: round;
        stroke-miterlimit: 10;
        stroke-width: 4px;
      }

      .cls-10, .cls-11, .cls-12, .cls-13, .cls-14, .cls-15, .cls-16, .cls-17, .cls-18, .cls-4, .cls-5, .cls-6, .cls-7, .cls-8, .cls-9 {
        fill-rule: evenodd;
      }

      .cls-4 {
        fill: url(#White_Black);
      }

      .cls-5 {
        fill: url(#linear-gradient);
      }

      .cls-6 {
        fill: url(#linear-gradient-2);
      }

      .cls-7 {
        fill: url(#linear-gradient-3);
      }

      .cls-8 {
        fill: url(#linear-gradient-4);
      }

      .cls-9 {
        fill: url(#linear-gradient-5);
      }

      .cls-10 {
        fill: url(#linear-gradient-6);
      }

      .cls-11 {
        fill: url(#linear-gradient-7);
      }

      .cls-12 {
        fill: url(#linear-gradient-8);
      }

      .cls-13 {
        fill: url(#linear-gradient-9);
      }

      .cls-14 {
        fill: url(#linear-gradient-10);
      }

      .cls-15 {
        fill: url(#linear-gradient-11);
      }

      .cls-16 {
        fill: url(#linear-gradient-12);
      }

      .cls-17 {
        fill: url(#linear-gradient-13);
      }

      .cls-18 {
        fill: url(#linear-gradient-14);
      }
    </style>
    <linearGradient id="White_Black" data-name="White, Black" x1="-566.9" y1="2735.67" x2="-472.43" y2="2735.67" gradientTransform="matrix(1, 0, 0, -1, 694, 2867.33)" gradientUnits="userSpaceOnUse">
      <stop offset="0" stop-color="#fff"/>
      <stop offset="1" stop-color="#231f20"/>
    </linearGradient>
    <linearGradient id="linear-gradient" x1="-570.48" y1="2760.7" x2="-499.33" y2="2760.7" gradientTransform="matrix(1, 0, 0, -1, 694, 2867.33)" gradientUnits="userSpaceOnUse">
      <stop offset="0" stop-color="#062c53"/>
      <stop offset="1" stop-color="#105ca0"/>
    </linearGradient>
    <linearGradient id="linear-gradient-2" x1="-570.48" y1="2750.38" x2="-499.33" y2="2750.38" xlink:href="#linear-gradient"/>
    <linearGradient id="linear-gradient-3" x1="-570.45" y1="2720.86" x2="-499.3" y2="2720.86" xlink:href="#linear-gradient"/>
    <linearGradient id="linear-gradient-4" x1="-570.47" y1="2710.53" x2="-499.32" y2="2710.54" xlink:href="#linear-gradient"/>
    <linearGradient id="linear-gradient-5" x1="-570.47" y1="2686.38" x2="-499.32" y2="2686.38" xlink:href="#linear-gradient"/>
    <linearGradient id="linear-gradient-6" x1="-570.47" y1="2712.97" x2="-499.32" y2="2712.97" xlink:href="#linear-gradient"/>
    <linearGradient id="linear-gradient-7" x1="-570.48" y1="2758.27" x2="-499.33" y2="2758.27" xlink:href="#linear-gradient"/>
    <linearGradient id="linear-gradient-8" x1="-570.48" y1="2784.96" x2="-499.33" y2="2784.96" xlink:href="#linear-gradient"/>
    <linearGradient id="linear-gradient-9" x1="-570.47" y1="2676.24" x2="-499.32" y2="2676.25" xlink:href="#linear-gradient"/>
    <linearGradient id="linear-gradient-10" x1="-570.47" y1="2710.92" x2="-499.32" y2="2710.92" xlink:href="#linear-gradient"/>
    <linearGradient id="linear-gradient-11" x1="-570.48" y1="2760.12" x2="-499.33" y2="2760.12" xlink:href="#linear-gradient"/>
    <linearGradient id="linear-gradient-12" x1="-570.48" y1="2795.09" x2="-499.33" y2="2795.09" xlink:href="#linear-gradient"/>
    <linearGradient id="linear-gradient-13" x1="197.97" y1="165.47" x2="269.86" y2="165.47" gradientTransform="matrix(1, 0, 0, 1, 0, 0)" xlink:href="#linear-gradient"/>
    <linearGradient id="linear-gradient-14" x1="197.97" y1="79.75" x2="263.82" y2="79.75" gradientTransform="matrix(1, 0, 0, 1, 0, 0)" xlink:href="#linear-gradient"/>
  </defs>
  <g>
    <path class="cls-1" d="M415.89,181.05a8.85,8.85,0,0,0,4.48,1.26c2.56,0,4.05-1.35,4.05-3.3s-1-2.85-3.64-3.85c-3.17-1.12-5.12-2.76-5.12-5.49,0-3,2.5-5.26,6.26-5.26a8.82,8.82,0,0,1,4.29,1l-.69,2a7.7,7.7,0,0,0-3.68-.92c-2.65,0-3.65,1.58-3.65,2.9,0,1.81,1.18,2.7,3.85,3.74,3.28,1.26,4.94,2.84,4.94,5.69s-2.21,5.57-6.78,5.57a10,10,0,0,1-4.94-1.24Z"/>
    <path class="cls-1" d="M445.65,177c0,5.15-3.56,7.39-6.92,7.39-3.76,0-6.67-2.76-6.67-7.16,0-4.65,3.05-7.38,6.9-7.38S445.65,172.77,445.65,177Zm-11,.15c0,3,1.75,5.34,4.23,5.34s4.22-2.27,4.22-5.4c0-2.36-1.18-5.34-4.17-5.34S434.62,174.53,434.62,177.17Z"/>
    <path class="cls-1" d="M451.69,184.09v-12h-2v-1.92h2v-.66a6.59,6.59,0,0,1,1.6-4.86,4.85,4.85,0,0,1,3.4-1.29,5.87,5.87,0,0,1,2.15.4l-.35,1.95a3.79,3.79,0,0,0-1.6-.31c-2.16,0-2.7,1.89-2.7,4v.75h3.36v1.92h-3.36v12Z"/>
    <path class="cls-1" d="M465.76,166.19v4h3.62v1.92h-3.62v7.5c0,1.72.49,2.7,1.9,2.7a5.41,5.41,0,0,0,1.46-.17l.12,1.89a6,6,0,0,1-2.24.35,3.49,3.49,0,0,1-2.73-1.06,5.16,5.16,0,0,1-1-3.62v-7.59h-2.15v-1.92h2.15v-3.34Z"/>
    <path class="cls-1" d="M476.07,170.19l1.84,7.06c.41,1.56.78,3,1,4.43H479c.32-1.41.78-2.9,1.24-4.4l2.27-7.09h2.12l2.16,6.95c.52,1.67.92,3.13,1.24,4.54h.08a41.72,41.72,0,0,1,1.06-4.51l2-7h2.5l-4.49,13.9h-2.29l-2.13-6.63c-.49-1.56-.89-2.93-1.24-4.57h-.05a42,42,0,0,1-1.27,4.59L480,184.09h-2.3l-4.19-13.9Z"/>
    <path class="cls-1" d="M506.38,184.09l-.2-1.75h-.08a5.2,5.2,0,0,1-4.26,2.07,4,4,0,0,1-4.25-4c0-3.36,3-5.2,8.36-5.17V175c0-1.15-.31-3.22-3.16-3.22a7,7,0,0,0-3.62,1l-.57-1.66a8.58,8.58,0,0,1,4.56-1.24c4.26,0,5.29,2.9,5.29,5.69v5.2a19.78,19.78,0,0,0,.23,3.33ZM506,177c-2.76-.06-5.89.43-5.89,3.13a2.23,2.23,0,0,0,2.38,2.41,3.48,3.48,0,0,0,3.37-2.33,2.8,2.8,0,0,0,.14-.8Z"/>
    <path class="cls-1" d="M515.11,174.53c0-1.64,0-3.05-.11-4.34h2.21l.09,2.73h.11a4.19,4.19,0,0,1,3.85-3,2.63,2.63,0,0,1,.72.09v2.38a3.66,3.66,0,0,0-.86-.09,3.55,3.55,0,0,0-3.39,3.25,6.92,6.92,0,0,0-.12,1.18v7.41h-2.5Z"/>
    <path class="cls-1" d="M528.21,177.6c.06,3.42,2.25,4.83,4.77,4.83a9.15,9.15,0,0,0,3.85-.72l.44,1.81a11.38,11.38,0,0,1-4.63.86c-4.28,0-6.84-2.82-6.84-7s2.47-7.5,6.52-7.5c4.54,0,5.75,4,5.75,6.55a9.16,9.16,0,0,1-.09,1.18Zm7.42-1.81c0-1.61-.66-4.11-3.51-4.11-2.55,0-3.68,2.36-3.88,4.11Z"/>
    <path class="cls-1" d="M551.86,182.6a1.71,1.71,0,1,1,1.69,1.81A1.69,1.69,0,0,1,551.86,182.6Z"/>
    <path class="cls-1" d="M586.07,175.59c-.14-2.7-.31-6-.28-8.36h-.09c-.66,2.27-1.47,4.68-2.44,7.35l-3.42,9.4h-1.9l-3.13-9.23c-.92-2.72-1.7-5.22-2.24-7.52h-.06c-.06,2.41-.2,5.66-.37,8.56l-.52,8.3h-2.38l1.35-19.36h3.19l3.3,9.36c.8,2.39,1.46,4.51,1.95,6.53h.09c.49-2,1.18-4.08,2-6.53l3.45-9.36h3.19l1.2,19.36h-2.44Z"/>
    <path class="cls-1" d="M603.22,184.09l-.2-1.75h-.09a5.18,5.18,0,0,1-4.25,2.07,4,4,0,0,1-4.25-4c0-3.36,3-5.2,8.36-5.17V175a2.87,2.87,0,0,0-3.16-3.22,7,7,0,0,0-3.62,1l-.57-1.66a8.56,8.56,0,0,1,4.56-1.24c4.26,0,5.29,2.9,5.29,5.69v5.2a19.78,19.78,0,0,0,.23,3.33Zm-.37-7.09c-2.76-.06-5.89.43-5.89,3.13a2.23,2.23,0,0,0,2.38,2.41,3.46,3.46,0,0,0,3.36-2.33,2.51,2.51,0,0,0,.15-.8Z"/>
    <path class="cls-1" d="M612,174.53c0-1.64,0-3.05-.11-4.34h2.21l.09,2.73h.11a4.18,4.18,0,0,1,3.85-3,2.63,2.63,0,0,1,.72.09v2.38a3.66,3.66,0,0,0-.86-.09,3.55,3.55,0,0,0-3.39,3.25,6.92,6.92,0,0,0-.12,1.18v7.41H612Z"/>
    <path class="cls-1" d="M626.55,176.56h.05c.35-.48.84-1.09,1.24-1.58l4.08-4.79H635l-5.38,5.71,6.12,8.19h-3.07l-4.8-6.66-1.29,1.43v5.23h-2.5v-20.4h2.5Z"/>
    <path class="cls-1" d="M641.51,177.6c.06,3.42,2.24,4.83,4.77,4.83a9.18,9.18,0,0,0,3.85-.72l.43,1.81a11.28,11.28,0,0,1-4.62.86c-4.28,0-6.84-2.82-6.84-7s2.47-7.5,6.52-7.5c4.54,0,5.75,4,5.75,6.55a9.16,9.16,0,0,1-.09,1.18Zm7.42-1.81c0-1.61-.66-4.11-3.51-4.11-2.56,0-3.68,2.36-3.88,4.11Z"/>
    <path class="cls-1" d="M660.13,166.19v4h3.62v1.92h-3.62v7.5c0,1.72.49,2.7,1.9,2.7a5.46,5.46,0,0,0,1.46-.17l.12,1.89a6,6,0,0,1-2.25.35,3.49,3.49,0,0,1-2.72-1.06,5.16,5.16,0,0,1-1-3.62v-7.59H655.5v-1.92h2.16v-3.34Z"/>
    <path class="cls-1" d="M672,166.28a1.57,1.57,0,0,1-3.13,0,1.54,1.54,0,0,1,1.58-1.58A1.5,1.5,0,0,1,672,166.28Zm-2.81,17.81v-13.9h2.53v13.9Z"/>
    <path class="cls-1" d="M678.49,174c0-1.44,0-2.61-.12-3.76h2.24l.14,2.3h.06a5.11,5.11,0,0,1,4.6-2.62c1.92,0,4.91,1.15,4.91,5.92v8.3h-2.53v-8c0-2.25-.83-4.11-3.21-4.11a3.59,3.59,0,0,0-3.39,2.58,3.53,3.53,0,0,0-.18,1.18v8.36h-2.52Z"/>
    <path class="cls-1" d="M709,170.19c-.06,1-.12,2.12-.12,3.82v8.07c0,3.19-.63,5.14-2,6.35a7.41,7.41,0,0,1-5.06,1.67,9,9,0,0,1-4.62-1.15l.63-1.93a7.78,7.78,0,0,0,4.08,1.09c2.58,0,4.48-1.35,4.48-4.85v-1.55h-.06a5,5,0,0,1-4.42,2.32c-3.45,0-5.92-2.93-5.92-6.78,0-4.71,3.07-7.38,6.26-7.38a4.61,4.61,0,0,1,4.34,2.41h.06l.11-2.09Zm-2.62,5.48a3.69,3.69,0,0,0-3.68-3.82c-2.41,0-4.13,2-4.13,5.26,0,2.73,1.37,5,4.1,5a3.7,3.7,0,0,0,3.51-2.59,4.51,4.51,0,0,0,.2-1.35Z"/>
    <path class="cls-1" d="M724.07,181.05a8.86,8.86,0,0,0,4.49,1.26c2.55,0,4.05-1.35,4.05-3.3s-1-2.85-3.65-3.85c-3.16-1.12-5.11-2.76-5.11-5.49,0-3,2.49-5.26,6.26-5.26a8.78,8.78,0,0,1,4.28,1l-.69,2a7.63,7.63,0,0,0-3.68-.92c-2.64,0-3.65,1.58-3.65,2.9,0,1.81,1.18,2.7,3.85,3.74,3.28,1.26,4.95,2.84,4.95,5.69s-2.22,5.57-6.79,5.57a10,10,0,0,1-4.94-1.24Z"/>
    <path class="cls-1" d="M753.84,177c0,5.15-3.56,7.39-6.93,7.39-3.76,0-6.66-2.76-6.66-7.16,0-4.65,3-7.38,6.89-7.38S753.84,172.77,753.84,177Zm-11,.15c0,3,1.75,5.34,4.22,5.34s4.22-2.27,4.22-5.4c0-2.36-1.18-5.34-4.16-5.34S742.81,174.53,742.81,177.17Z"/>
    <path class="cls-1" d="M759.61,163.69h2.53v20.4h-2.53Z"/>
    <path class="cls-1" d="M780.61,180.3c0,1.44,0,2.7.12,3.79h-2.24l-.15-2.27h-.06a5.22,5.22,0,0,1-4.59,2.59c-2.19,0-4.8-1.21-4.8-6.09v-8.13h2.53v7.7c0,2.64.8,4.42,3.1,4.42a3.65,3.65,0,0,0,3.33-2.3,3.53,3.53,0,0,0,.23-1.29v-8.53h2.53Z"/>
    <path class="cls-1" d="M790.44,166.19v4h3.62v1.92h-3.62v7.5c0,1.72.48,2.7,1.89,2.7a5.55,5.55,0,0,0,1.47-.17l.11,1.89a6,6,0,0,1-2.24.35,3.49,3.49,0,0,1-2.73-1.06,5.16,5.16,0,0,1-1-3.62v-7.59h-2.15v-1.92H788v-3.34Z"/>
    <path class="cls-1" d="M802.3,166.28a1.57,1.57,0,0,1-3.13,0,1.54,1.54,0,0,1,1.58-1.58A1.5,1.5,0,0,1,802.3,166.28Zm-2.82,17.81v-13.9H802v13.9Z"/>
    <path class="cls-1" d="M821.38,177c0,5.15-3.57,7.39-6.93,7.39-3.76,0-6.66-2.76-6.66-7.16,0-4.65,3-7.38,6.89-7.38C818.68,169.87,821.38,172.77,821.38,177Zm-11,.15c0,3,1.76,5.34,4.23,5.34s4.22-2.27,4.22-5.4c0-2.36-1.18-5.34-4.17-5.34S810.34,174.53,810.34,177.17Z"/>
    <path class="cls-1" d="M827.15,174c0-1.44,0-2.61-.12-3.76h2.24l.15,2.3h.06a5.08,5.08,0,0,1,4.59-2.62c1.93,0,4.92,1.15,4.92,5.92v8.3h-2.53v-8c0-2.25-.84-4.11-3.22-4.11a3.59,3.59,0,0,0-3.39,2.58,3.54,3.54,0,0,0-.17,1.18v8.36h-2.53Z"/>
    <path class="cls-1" d="M845.33,181.51a6.73,6.73,0,0,0,3.34,1c1.83,0,2.7-.92,2.7-2.07s-.72-1.86-2.59-2.55c-2.5-.89-3.68-2.27-3.68-3.94,0-2.24,1.81-4.08,4.8-4.08a7,7,0,0,1,3.42.86l-.63,1.84a5.47,5.47,0,0,0-2.85-.8c-1.49,0-2.32.86-2.32,1.89s.83,1.67,2.64,2.36c2.41.92,3.65,2.13,3.65,4.19,0,2.45-1.9,4.17-5.2,4.17a7.87,7.87,0,0,1-3.91-.95Z"/>
    <path class="cls-1" d="M870.3,182.6a1.69,1.69,0,0,1,1.72-1.81,1.81,1.81,0,0,1,0,3.62A1.69,1.69,0,0,1,870.3,182.6Z"/>
  </g>
  <g>
    <path class="cls-2" d="M417.15,139.75A49.16,49.16,0,0,1,401,142.64c-8,0-14.53-2-19.69-6.95-4.53-4.38-7.34-11.41-7.34-19.61.08-15.71,10.86-27.19,28.51-27.19a32.65,32.65,0,0,1,13.13,2.42L414,96.86a27.28,27.28,0,0,0-11.64-2.27c-12.82,0-21.17,8-21.17,21.17,0,13.36,8,21.25,20.31,21.25,4.45,0,7.5-.62,9.06-1.4V119.9h-10.7v-5.46h17.34Z"/>
    <path class="cls-2" d="M427.54,89.44h6.8v46.95h22.5v5.7h-29.3Z"/>
    <path class="cls-2" d="M506.37,115.22c0,18.12-11,27.73-24.45,27.73-13.91,0-23.67-10.78-23.67-26.72,0-16.72,10.39-27.65,24.45-27.65C497.07,88.58,506.37,99.59,506.37,115.22Zm-40.86.86c0,11.25,6.1,21.32,16.8,21.32s16.87-9.92,16.87-21.87c0-10.47-5.47-21.41-16.79-21.41S465.51,104.51,465.51,116.08Z"/>
    <path class="cls-2" d="M515.2,90.14A65.41,65.41,0,0,1,527.62,89c6.8,0,11.17,1.18,14.45,3.83a11,11,0,0,1,4.38,9.3c0,5.08-3.36,9.53-8.91,11.56v.16c5,1.25,10.86,5.39,10.86,13.2A14.19,14.19,0,0,1,544,137.64c-3.67,3.36-9.61,4.92-18.2,4.92a80.17,80.17,0,0,1-10.55-.62ZM522,111.7h6.17c7.19,0,11.4-3.75,11.4-8.83,0-6.17-4.68-8.59-11.56-8.59a28.66,28.66,0,0,0-6,.47Zm0,25.24a36.83,36.83,0,0,0,5.7.31c7,0,13.52-2.58,13.52-10.24,0-7.18-6.18-10.15-13.6-10.15H522Z"/>
    <path class="cls-2" d="M566.06,125.53l-5.47,16.56h-7l17.89-52.65h8.2l18,52.65h-7.26l-5.63-16.56Zm17.27-5.31-5.16-15.16c-1.17-3.44-1.95-6.56-2.73-9.61h-.16c-.78,3.13-1.64,6.33-2.66,9.53l-5.15,15.24Z"/>
    <path class="cls-2" d="M605.36,89.44h6.79v46.95h22.5v5.7H605.36Z"/>
    <path class="cls-2" d="M658.79,142.09V89.44h7.43l16.87,26.64a147.5,147.5,0,0,1,9.45,17.11l.16-.08c-.62-7-.78-13.44-.78-21.64v-22h6.41v52.65h-6.88l-16.72-26.72a165.7,165.7,0,0,1-9.84-17.58l-.24.08c.39,6.64.55,13,.55,21.72v22.5Z"/>
    <path class="cls-2" d="M737.47,117.4H717v19h22.81v5.7H710.2V89.44h28.44v5.7H717v16.64h20.47Z"/>
    <path class="cls-2" d="M777.47,142.09l-6.72-11.64c-2.74-4.45-4.46-7.34-6.1-10.39h-.15c-1.49,3-3,5.86-5.71,10.47l-6.32,11.56h-7.82l16.1-26.64-15.47-26h7.89l7,12.34c2,3.44,3.44,6.09,4.85,8.91h.23c1.49-3.13,2.81-5.55,4.77-8.91l7.18-12.34H785l-16,25.62,16.41,27Z"/>
    <path class="cls-2" d="M800.05,89.44v31.17c0,11.79,5.23,16.79,12.26,16.79,7.81,0,12.81-5.15,12.81-16.79V89.44H832v30.7c0,16.17-8.52,22.81-19.92,22.81-10.78,0-18.91-6.17-18.91-22.5v-31Z"/>
    <path class="cls-2" d="M842.86,133.81a24,24,0,0,0,12.19,3.44c7,0,11-3.67,11-9,0-4.92-2.81-7.73-9.92-10.47-8.59-3-13.91-7.5-13.91-14.92,0-8.2,6.8-14.29,17-14.29a24.05,24.05,0,0,1,11.64,2.57L869,96.7a20.93,20.93,0,0,0-10-2.5c-7.19,0-9.92,4.3-9.92,7.89,0,4.92,3.2,7.35,10.47,10.16,8.9,3.44,13.44,7.73,13.44,15.47,0,8.12-6,15.15-18.44,15.15-5.08,0-10.63-1.48-13.44-3.36Z"/>
  </g>
  <line class="cls-3" x1="287.74" y1="72.73" x2="287.74" y2="190.52"/>
  <path class="cls-4" d="M218.23,131.76c0-46.75-22-84.74-49.29-84.74-12.66,0-24.16,8.37-32.92,22,39.94-51,62.73,31,62.73,62.73,0,42.67-15.39,77.93-38.19,77.35-10.13-.2-24.74-13.05-33.7-33.32,8.77,24.36,24.35,40.53,42.08,40.53C196.22,216.32,218.23,178.52,218.23,131.76Z"/>
  <g>
    <path class="cls-5" d="M141.08,100a112.52,112.52,0,0,0-5.45-13.25,74.44,74.44,0,0,0-15,39.74A83.28,83.28,0,0,1,141.08,100Z"/>
    <path class="cls-6" d="M142.45,104.1a77.23,77.23,0,0,0-18.9,25.72h22.6A104.42,104.42,0,0,0,142.45,104.1Z"/>
    <path class="cls-7" d="M146.15,133.71h-22.6a76.62,76.62,0,0,0,18.7,25.52A103.94,103.94,0,0,0,146.15,133.71Z"/>
    <path class="cls-8" d="M140.89,163.33A84,84,0,0,1,120.63,137a73.66,73.66,0,0,0,14.8,39.55A86.9,86.9,0,0,0,140.89,163.33Z"/>
    <path class="cls-9" d="M144.2,166.05a123.36,123.36,0,0,1-6,13.84,67.57,67.57,0,0,0,18.9,16,102,102,0,0,0,10.13-17.14,82.08,82.08,0,0,1-17.93-9.16C147.51,168.39,145.76,167.22,144.2,166.05Z"/>
    <path class="cls-10" d="M145.56,162a66.1,66.1,0,0,0,5.85,4.29A74.13,74.13,0,0,0,168.94,175a108.49,108.49,0,0,0,8.77-41.31H150A106.54,106.54,0,0,1,145.56,162Z"/>
    <path class="cls-11" d="M150,129.82h27.67a109.39,109.39,0,0,0-8.77-41.5,92,92,0,0,0-17.53,8.77c-1.95,1.36-3.9,2.72-5.85,4.28A99.33,99.33,0,0,1,150,129.82Z"/>
    <path class="cls-12" d="M149.26,93.77a81.46,81.46,0,0,1,17.93-9,104.12,104.12,0,0,0-10.13-17.34,76.78,76.78,0,0,0-18.71,15.78,143.6,143.6,0,0,1,6,14C146,96.11,147.51,94.94,149.26,93.77Z"/>
    <path class="cls-13" d="M185.5,183a70.73,70.73,0,0,1-14.42-3.11,110,110,0,0,1-10.52,17.92,67.56,67.56,0,0,0,10.14,4.48C177.51,198.2,182.38,190,185.5,183Z"/>
    <path class="cls-14" d="M172.64,176.38a72.82,72.82,0,0,0,14.42,2.73c5.26-14,7.4-30.4,7.6-45.4H181.8A115.6,115.6,0,0,1,172.64,176.38Z"/>
    <path class="cls-15" d="M181.8,129.82h12.86c-.2-11.5-2.92-24.55-6.24-35.27-.78-2.73-1.94-6.23-3.31-9.93a67.42,67.42,0,0,0-12.47,2.53A115.55,115.55,0,0,1,181.8,129.82Z"/>
    <path class="cls-16" d="M171.08,83.45a88.46,88.46,0,0,1,12.47-2.73c-3.11-7.21-7.4-15-12.66-19.68a84.63,84.63,0,0,0-10.33,4.48A118.77,118.77,0,0,1,171.08,83.45Z"/>
  </g>
  <path class="cls-17" d="M245.31,146.77a52.1,52.1,0,0,1-31.95,34.09,88.42,88.42,0,0,1-4.48,9.74A84.15,84.15,0,0,1,198,206.38a75,75,0,0,0,70.33-59.61,76.52,76.52,0,0,0,1.56-15c0-2.53-.19-4.87-.39-7.2H222.13c0,2.33.19,4.87.19,7.2,0,4.87-.39,9.94-.78,15Z"/>
  <path class="cls-18" d="M238.49,102.35h25.33A74.31,74.31,0,0,0,198,57.15a78.13,78.13,0,0,1,10.91,15.78,87.58,87.58,0,0,1,4.48,9.74A51.26,51.26,0,0,1,238.49,102.35Z"/>
</svg>
