<svg id="Layer_1" data-name="Layer 1" xmlns="http://www.w3.org/2000/svg" xmlns:xlink="http://www.w3.org/1999/xlink" viewBox="0 0 1000 263.33">
  <defs>
    <style>
      .cls-1 {
        fill: #032b4e;
      }

      .cls-2 {
        fill: #414042;
      }

      .cls-3 {
        fill: none;
        stroke: #0b2852;
        stroke-linecap: round;
        stroke-miterlimit: 10;
        stroke-width: 4px;
      }

      .cls-10, .cls-11, .cls-12, .cls-13, .cls-14, .cls-15, .cls-16, .cls-17, .cls-18, .cls-4, .cls-5, .cls-6, .cls-7, .cls-8, .cls-9 {
        fill-rule: evenodd;
      }

      .cls-4 {
        fill: url(#White_Black);
      }

      .cls-5 {
        fill: url(#linear-gradient);
      }

      .cls-6 {
        fill: url(#linear-gradient-2);
      }

      .cls-7 {
        fill: url(#linear-gradient-3);
      }

      .cls-8 {
        fill: url(#linear-gradient-4);
      }

      .cls-9 {
        fill: url(#linear-gradient-5);
      }

      .cls-10 {
        fill: url(#linear-gradient-6);
      }

      .cls-11 {
        fill: url(#linear-gradient-7);
      }

      .cls-12 {
        fill: url(#linear-gradient-8);
      }

      .cls-13 {
        fill: url(#linear-gradient-9);
      }

      .cls-14 {
        fill: url(#linear-gradient-10);
      }

      .cls-15 {
        fill: url(#linear-gradient-11);
      }

      .cls-16 {
        fill: url(#linear-gradient-12);
      }

      .cls-17 {
        fill: url(#linear-gradient-13);
      }

      .cls-18 {
        fill: url(#linear-gradient-14);
      }
    </style>
    <linearGradient id="White_Black" data-name="White, Black" x1="-566.9" y1="2735.67" x2="-472.43" y2="2735.67" gradientTransform="matrix(1, 0, 0, -1, 694, 2867.33)" gradientUnits="userSpaceOnUse">
      <stop offset="0" stop-color="#fff"/>
      <stop offset="1" stop-color="#231f20"/>
    </linearGradient>
    <linearGradient id="linear-gradient" x1="-570.48" y1="2760.7" x2="-499.33" y2="2760.7" gradientTransform="matrix(1, 0, 0, -1, 694, 2867.33)" gradientUnits="userSpaceOnUse">
      <stop offset="0" stop-color="#062c53"/>
      <stop offset="1" stop-color="#105ca0"/>
    </linearGradient>
    <linearGradient id="linear-gradient-2" x1="-570.48" y1="2750.38" x2="-499.33" y2="2750.38" xlink:href="#linear-gradient"/>
    <linearGradient id="linear-gradient-3" x1="-570.45" y1="2720.86" x2="-499.3" y2="2720.86" xlink:href="#linear-gradient"/>
    <linearGradient id="linear-gradient-4" x1="-570.47" y1="2710.53" x2="-499.32" y2="2710.54" xlink:href="#linear-gradient"/>
    <linearGradient id="linear-gradient-5" x1="-570.47" y1="2686.38" x2="-499.32" y2="2686.38" xlink:href="#linear-gradient"/>
    <linearGradient id="linear-gradient-6" x1="-570.47" y1="2712.97" x2="-499.32" y2="2712.97" xlink:href="#linear-gradient"/>
    <linearGradient id="linear-gradient-7" x1="-570.48" y1="2758.27" x2="-499.33" y2="2758.27" xlink:href="#linear-gradient"/>
    <linearGradient id="linear-gradient-8" x1="-570.48" y1="2784.96" x2="-499.33" y2="2784.96" xlink:href="#linear-gradient"/>
    <linearGradient id="linear-gradient-9" x1="-570.47" y1="2676.24" x2="-499.32" y2="2676.25" xlink:href="#linear-gradient"/>
    <linearGradient id="linear-gradient-10" x1="-570.47" y1="2710.92" x2="-499.32" y2="2710.92" xlink:href="#linear-gradient"/>
    <linearGradient id="linear-gradient-11" x1="-570.48" y1="2760.12" x2="-499.33" y2="2760.12" xlink:href="#linear-gradient"/>
    <linearGradient id="linear-gradient-12" x1="-570.48" y1="2795.09" x2="-499.33" y2="2795.09" xlink:href="#linear-gradient"/>
    <linearGradient id="linear-gradient-13" x1="197.97" y1="165.47" x2="269.86" y2="165.47" gradientTransform="matrix(1, 0, 0, 1, 0, 0)" xlink:href="#linear-gradient"/>
    <linearGradient id="linear-gradient-14" x1="197.97" y1="79.75" x2="263.82" y2="79.75" gradientTransform="matrix(1, 0, 0, 1, 0, 0)" xlink:href="#linear-gradient"/>
  </defs>
  <g>
    <path class="cls-1" d="M367.92,68.43v12.2H362a20.51,20.51,0,0,0-2.25-5.56,8,8,0,0,0-3.27-2.92,12.84,12.84,0,0,0-12.65,1.63q-3.27,2.59-5.16,8.29a46.5,46.5,0,0,0-1.89,14.42,58.58,58.58,0,0,0,1.27,13,19.9,19.9,0,0,0,3.86,8.57,8.12,8.12,0,0,0,6.43,3.05q3.78,0,5.58-2.25t1.81-7.2v-1.63a33.67,33.67,0,0,0-.22-4.67,5.34,5.34,0,0,0-.66-2.08,3.61,3.61,0,0,0-1.18-1.12,13.7,13.7,0,0,0-2.58-1V98.38h22v2.84a6.63,6.63,0,0,0-2.92,1.46,4.31,4.31,0,0,0-1.06,2.17,20.39,20.39,0,0,0-.28,3.8v16.2l-6.18,1.29-2.93-3.1A21.94,21.94,0,0,1,348,126.18q-12.54,0-18.71-7.33t-6.16-22.19a39.59,39.59,0,0,1,2.19-13.75,25.09,25.09,0,0,1,6.08-9.65,24,24,0,0,1,8.76-5.41,31.66,31.66,0,0,1,10.47-1.7A61.84,61.84,0,0,1,367.92,68.43Z"/>
    <path class="cls-1" d="M402.29,66.84v2.84a11.64,11.64,0,0,0-2.45.92A3.54,3.54,0,0,0,398.45,72a5.71,5.71,0,0,0-.65,2.22,31.9,31.9,0,0,0-.15,3.41v42.8H406a8.9,8.9,0,0,0,4-.77,7.06,7.06,0,0,0,2.59-2.39,15.65,15.65,0,0,0,1.9-4.21c.52-1.73.95-3.36,1.26-4.88h5.89l-.95,17.36H379.74v-2.83a12,12,0,0,0,2.51-1,3.3,3.3,0,0,0,1.37-1.4,6,6,0,0,0,.58-2.23c.09-.9.13-2,.13-3.42v-37c0-1.35,0-2.48-.1-3.4a6,6,0,0,0-.56-2.23,3.5,3.5,0,0,0-1.38-1.4,10.61,10.61,0,0,0-2.55-1V66.84Z"/>
    <path class="cls-1" d="M452.57,126.18q-12.63,0-19-7.39t-6.34-22.13a40.2,40.2,0,0,1,3.07-16.52,22.42,22.42,0,0,1,9.05-10.42,27.2,27.2,0,0,1,14.22-3.57q12.84,0,19.29,7.37t6.45,21.89a44.77,44.77,0,0,1-1.92,14,25,25,0,0,1-5.43,9.56,21.44,21.44,0,0,1-8.44,5.5A32.51,32.51,0,0,1,452.57,126.18ZM440.92,95.5q0,13,3.12,19.31t9.52,6.34a8.93,8.93,0,0,0,5.62-1.78,12.64,12.64,0,0,0,3.76-5A28.27,28.27,0,0,0,465,106.8a69.44,69.44,0,0,0,.62-9.62,64.23,64.23,0,0,0-1.35-14.33c-.91-3.86-2.27-6.76-4.09-8.73a9.09,9.09,0,0,0-7-2.94q-6.22,0-9.26,5.95T440.92,95.5Z"/>
    <path class="cls-1" d="M525,94.77a19.86,19.86,0,0,1,9.18,5.48,12.6,12.6,0,0,1,3.15,8.61,18,18,0,0,1-1.44,7.48,12.57,12.57,0,0,1-4.38,5.22,20.22,20.22,0,0,1-6.92,3,44.86,44.86,0,0,1-10.11.94H488v-2.83a12.43,12.43,0,0,0,2.51-.93,3.13,3.13,0,0,0,1.37-1.37,6.09,6.09,0,0,0,.59-2.24c.08-.9.12-2,.12-3.41v-37c0-1.35,0-2.48-.1-3.4A6,6,0,0,0,492,72a3.5,3.5,0,0,0-1.38-1.4,10.61,10.61,0,0,0-2.55-1V66.84h28.14a53.81,53.81,0,0,1,7.86.47,22.13,22.13,0,0,1,7,2.24,10.33,10.33,0,0,1,4.17,4,12.31,12.31,0,0,1,1.5,6.23q0,9.71-11.69,14.56Zm-13.36-2.23a15.13,15.13,0,0,0,6.75-1.25,8.5,8.5,0,0,0,3.71-3.55,13.13,13.13,0,0,0,1.27-6.33A10.11,10.11,0,0,0,522,75.76a7.54,7.54,0,0,0-3.91-3,19,19,0,0,0-6.31-.9q-3,0-5.85.21V92.54Zm-5.72,27.8c1.69.08,3.64.13,5.85.13a19.1,19.1,0,0,0,6.72-1,8,8,0,0,0,4.11-3.53,13.76,13.76,0,0,0,1.46-6.89,16,16,0,0,0-.78-5.31,8.17,8.17,0,0,0-2.32-3.57,9.51,9.51,0,0,0-3.69-2,19.38,19.38,0,0,0-5.37-.63h-6Z"/>
    <path class="cls-1" d="M574.77,107.32H556.42L555,111.4a32.36,32.36,0,0,0-1,3.33,14.42,14.42,0,0,0-.39,3.41q0,4.22,4.47,4.52v2.83H539.75v-2.83a5.39,5.39,0,0,0,2.79-1.12,9.34,9.34,0,0,0,2.2-2.58,28.54,28.54,0,0,0,2.1-4.68l17.92-47.74h11.47l14.18,48.12a34.18,34.18,0,0,0,1.59,4.58,6.22,6.22,0,0,0,1.68,2.19,6.63,6.63,0,0,0,2.88,1.23v2.83H572.84v-2.83a5.85,5.85,0,0,0,3.31-1.25,3.62,3.62,0,0,0,1.07-2.79,16.59,16.59,0,0,0-.3-3c-.2-1.09-.53-2.46-1-4.12Zm-16.71-5h15.46L566.65,78.1Z"/>
    <path class="cls-1" d="M624.14,66.84v2.84a11.43,11.43,0,0,0-2.45.92A3.48,3.48,0,0,0,620.3,72a5.71,5.71,0,0,0-.65,2.22,31.9,31.9,0,0,0-.15,3.41v42.8h8.34a8.82,8.82,0,0,0,4-.77,7.09,7.09,0,0,0,2.6-2.39,15.65,15.65,0,0,0,1.89-4.21c.53-1.73,1-3.36,1.27-4.88h5.89l-1,17.36H601.58v-2.83a11.86,11.86,0,0,0,2.52-1,3.3,3.3,0,0,0,1.37-1.4,6,6,0,0,0,.58-2.23c.09-.9.13-2,.13-3.42v-37c0-1.35,0-2.48-.11-3.4a5.6,5.6,0,0,0-.56-2.23,3.54,3.54,0,0,0-1.37-1.4,10.71,10.71,0,0,0-2.56-1V66.84Z"/>
    <path class="cls-1" d="M721.51,66.84v2.84a15.29,15.29,0,0,0-2.43.94,3.83,3.83,0,0,0-1.2,1,4.71,4.71,0,0,0-.75,2,21.89,21.89,0,0,0-.26,4v47.86H706L686.62,92.06c-2.61-4.52-4.53-8.08-5.76-10.65h-.39q.43,9.24.43,19.5v13.84a20.84,20.84,0,0,0,.33,4.51,3.89,3.89,0,0,0,1.16,2,7.91,7.91,0,0,0,3.15,1.36v2.83H669.3v-2.83a11.86,11.86,0,0,0,2.52-1,3.3,3.3,0,0,0,1.37-1.4,6.19,6.19,0,0,0,.58-2.21c.09-.89.13-2,.13-3.35V77.58a23.13,23.13,0,0,0-.28-4.45,3.94,3.94,0,0,0-1.16-2,7.74,7.74,0,0,0-3.16-1.41V66.84h17.4l15.21,26.43q1.43,2.49,3.7,6.74t4,8h.69q-.48-10.27-.48-22.43v-8a27.16,27.16,0,0,0-.21-4A4.7,4.7,0,0,0,709,71.7a3.69,3.69,0,0,0-1.2-1.08,13,13,0,0,0-2.51-.94V66.84Z"/>
    <path class="cls-1" d="M771.82,66.84V80.5h-5.88A26.39,26.39,0,0,0,763.53,75a7.71,7.71,0,0,0-2.36-2.27,9.53,9.53,0,0,0-4.68-.84h-9.37V92.49h5.67a6.82,6.82,0,0,0,3-.53,4.28,4.28,0,0,0,1.79-1.79,16.1,16.1,0,0,0,1.35-3.87h4.86v17.45h-4.86a15.41,15.41,0,0,0-1.33-3.8,4.6,4.6,0,0,0-1.74-1.87,6.45,6.45,0,0,0-3-.56h-5.67v23h9.32a14,14,0,0,0,2.54-.2,5.91,5.91,0,0,0,1.84-.66,6.85,6.85,0,0,0,1.57-1.29,11.59,11.59,0,0,0,1.34-1.77,19.37,19.37,0,0,0,1.22-2.49,41.54,41.54,0,0,0,1.42-4.25h5.88l-.81,15.68H729.2v-2.83a12.2,12.2,0,0,0,2.51-.93,3.15,3.15,0,0,0,1.38-1.37,6.31,6.31,0,0,0,.58-2.24c.08-.9.13-2,.13-3.41v-37c0-1.35,0-2.48-.11-3.4a5.77,5.77,0,0,0-.56-2.23,3.54,3.54,0,0,0-1.37-1.4,10.71,10.71,0,0,0-2.56-1V66.84Z"/>
    <path class="cls-1" d="M801.86,66.84v2.84a5.38,5.38,0,0,0-2.86.92,2.68,2.68,0,0,0-.84,2.17,5.11,5.11,0,0,0,.31,1.65,13.81,13.81,0,0,0,1,2.22c.46.86,1.24,2.2,2.32,4l4,6.66,5.2-7.65a27.13,27.13,0,0,0,2.3-3.89,7.4,7.4,0,0,0,.58-2.9,2.79,2.79,0,0,0-1-2.21,4.49,4.49,0,0,0-2.62-1V66.84H828v2.88a8.19,8.19,0,0,0-2.37,1.09,13.85,13.85,0,0,0-2.57,2.5q-1.47,1.74-4.69,6.33l-9.28,13.24,14,23.12c.49.77,1,1.54,1.48,2.3s1,1.43,1.46,2a9.13,9.13,0,0,0,1.25,1.32,5.64,5.64,0,0,0,1,.66,5.73,5.73,0,0,0,1.08.37v2.83H805.56v-2.83a5.74,5.74,0,0,0,2.79-.91,2.56,2.56,0,0,0,.9-2.19,4.6,4.6,0,0,0-.15-1.11,9.86,9.86,0,0,0-.52-1.47,14.49,14.49,0,0,0-.73-1.52c-.24-.44-.73-1.3-1.48-2.56l-6-9.84-7,10.36q-.82,1.24-1.38,2.28a7.92,7.92,0,0,0-.77,1.89,8,8,0,0,0-.22,2,2.68,2.68,0,0,0,.93,2,4.43,4.43,0,0,0,2.64,1v2.83H776.81v-2.83a8.72,8.72,0,0,0,2.6-1.31,15.76,15.76,0,0,0,2.58-2.56q1.39-1.68,3.84-5.2l11.22-16.07-10.83-18q-1.77-2.92-3-4.86a29.74,29.74,0,0,0-2.13-2.94,7.18,7.18,0,0,0-1.52-1.44,4.28,4.28,0,0,0-1.57-.6V66.84Z"/>
    <path class="cls-1" d="M871,77.63a24,24,0,0,0-.28-4.5,3.89,3.89,0,0,0-1.09-2,8.08,8.08,0,0,0-3.18-1.41V66.84h18.91v2.84a11.22,11.22,0,0,0-2.45.92A3.37,3.37,0,0,0,881.48,72a6.14,6.14,0,0,0-.6,2.24c-.09.9-.13,2-.13,3.42v26.85a39.24,39.24,0,0,1-.86,8.92,16.52,16.52,0,0,1-2.66,6,14.12,14.12,0,0,1-4.49,4,20.13,20.13,0,0,1-6,2.15,40,40,0,0,1-7.52.64,36,36,0,0,1-10.31-1.27,16.55,16.55,0,0,1-6.86-3.82,15.77,15.77,0,0,1-3.91-6.21,29.4,29.4,0,0,1-1.26-9.41V77.67c0-1.35,0-2.48-.11-3.4a5.77,5.77,0,0,0-.56-2.23,3.54,3.54,0,0,0-1.37-1.4,10.71,10.71,0,0,0-2.56-1V66.84H854.8v2.84a9.4,9.4,0,0,0-2.6,1A3.61,3.61,0,0,0,850.93,72a5.62,5.62,0,0,0-.6,2,27.81,27.81,0,0,0-.17,3.65V106a40.55,40.55,0,0,0,.43,6.19,14,14,0,0,0,1.56,4.79,7.85,7.85,0,0,0,3.16,3.07,11,11,0,0,0,5.2,1.07c2.92,0,5.1-.58,6.53-1.76a9.3,9.3,0,0,0,3-4.92A37.48,37.48,0,0,0,871,105Z"/>
    <path class="cls-1" d="M898,111c.72,3.41,1.91,5.95,3.59,7.63s4.13,2.51,7.37,2.51a11.36,11.36,0,0,0,4.55-.86,7,7,0,0,0,3.25-2.77,8.76,8.76,0,0,0,1.22-4.79,10.15,10.15,0,0,0-1-4.62,11.72,11.72,0,0,0-3.18-3.72,35.12,35.12,0,0,0-6.1-3.73,58.42,58.42,0,0,1-6.06-3.48,23.86,23.86,0,0,1-4.62-4,16.64,16.64,0,0,1-3-4.75,16.64,16.64,0,0,1,1.57-14.78,16.07,16.07,0,0,1,7.58-5.61,32,32,0,0,1,11.5-1.91,63.23,63.23,0,0,1,7.3.41A73.32,73.32,0,0,1,930,68V80.46h-5.89A18,18,0,0,0,922,75.07a8,8,0,0,0-3.16-2.94,12,12,0,0,0-9.15-.09,6.9,6.9,0,0,0-3,2.56,7.25,7.25,0,0,0-1.12,4.1,9.06,9.06,0,0,0,1,4.32,11.22,11.22,0,0,0,3.24,3.56,46.29,46.29,0,0,0,6.62,4A42.9,42.9,0,0,1,924.64,96a17.31,17.31,0,0,1,4.47,5.76,17.1,17.1,0,0,1,1.44,7.24,16.78,16.78,0,0,1-2.45,9.17,15.66,15.66,0,0,1-7.13,6,26.39,26.39,0,0,1-10.83,2.08,91,91,0,0,1-9.13-.49,76,76,0,0,1-8.92-1.44V111Z"/>
  </g>
  <g>
    <path class="cls-2" d="M351.36,167.78a9.31,9.31,0,0,0,4.67,1.31c2.66,0,4.21-1.4,4.21-3.44,0-1.88-1.08-3-3.8-4-3.28-1.17-5.32-2.87-5.32-5.71,0-3.14,2.6-5.47,6.52-5.47a9.1,9.1,0,0,1,4.45,1l-.71,2.12a8,8,0,0,0-3.83-1c-2.75,0-3.8,1.65-3.8,3,0,1.88,1.23,2.81,4,3.89,3.41,1.31,5.14,3,5.14,5.92s-2.3,5.79-7,5.79A10.41,10.41,0,0,1,350.7,170Z"/>
    <path class="cls-2" d="M386.21,163.59c0,5.35-3.7,7.69-7.2,7.69-3.92,0-6.94-2.88-6.94-7.45,0-4.84,3.17-7.68,7.18-7.68S386.21,159.17,386.21,163.59Zm-11.48.15c0,3.17,1.83,5.56,4.4,5.56s4.39-2.36,4.39-5.62c0-2.45-1.22-5.56-4.33-5.56S374.73,161,374.73,163.74Z"/>
    <path class="cls-2" d="M396.37,171V158.48h-2v-2h2v-.69a6.8,6.8,0,0,1,1.68-5,5,5,0,0,1,3.52-1.35,6.12,6.12,0,0,1,2.25.42l-.36,2a3.94,3.94,0,0,0-1.68-.33c-2.24,0-2.81,2-2.81,4.18v.78h3.5v2H399V171Z"/>
    <path class="cls-2" d="M414.9,152.32v4.16h3.77v2H414.9v7.8c0,1.8.51,2.81,2,2.81a5.85,5.85,0,0,0,1.52-.18l.12,2a6.48,6.48,0,0,1-2.33.35,3.63,3.63,0,0,1-2.84-1.1c-.75-.78-1-2.06-1-3.77v-7.89h-2.24v-2h2.24V153Z"/>
    <path class="cls-2" d="M429.52,156.48l1.91,7.35c.42,1.62.81,3.11,1.08,4.61h.09c.32-1.47.8-3,1.28-4.58l2.36-7.38h2.21l2.25,7.23c.53,1.74.95,3.26,1.28,4.73h.09a43.52,43.52,0,0,1,1.11-4.7l2.06-7.26h2.6L443.18,171h-2.39L438.57,164c-.5-1.61-.92-3-1.28-4.75h-.06a42.6,42.6,0,0,1-1.32,4.78L433.58,171h-2.39l-4.36-14.47Z"/>
    <path class="cls-2" d="M464.93,171l-.2-1.83h-.09a5.4,5.4,0,0,1-4.43,2.16,4.12,4.12,0,0,1-4.42-4.16c0-3.5,3.11-5.41,8.7-5.38v-.3c0-1.2-.33-3.35-3.29-3.35a7.2,7.2,0,0,0-3.77,1.08l-.6-1.73a9,9,0,0,1,4.76-1.29c4.42,0,5.5,3,5.5,5.92v5.41a20.4,20.4,0,0,0,.24,3.47Zm-.38-7.39c-2.87-.06-6.13.45-6.13,3.26a2.32,2.32,0,0,0,2.48,2.51,3.6,3.6,0,0,0,3.5-2.42,2.76,2.76,0,0,0,.15-.84Z"/>
    <path class="cls-2" d="M477.9,161c0-1.7,0-3.17-.12-4.51h2.31l.09,2.84h.12a4.32,4.32,0,0,1,4-3.17,2.86,2.86,0,0,1,.75.09v2.48a4,4,0,0,0-.9-.09c-1.85,0-3.17,1.41-3.53,3.38a7.41,7.41,0,0,0-.12,1.22V171h-2.6Z"/>
    <path class="cls-2" d="M495.42,164.19c.06,3.56,2.33,5,5,5a9.53,9.53,0,0,0,4-.75l.44,1.89a11.68,11.68,0,0,1-4.81.89c-4.45,0-7.11-2.92-7.11-7.29s2.57-7.8,6.78-7.8c4.73,0,6,4.15,6,6.81a10,10,0,0,1-.09,1.23Zm7.71-1.88c0-1.68-.69-4.28-3.65-4.28-2.66,0-3.82,2.45-4,4.28Z"/>
    <path class="cls-2" d="M527.79,169.39a1.76,1.76,0,0,1,1.79-1.88,1.89,1.89,0,0,1,0,3.77A1.76,1.76,0,0,1,527.79,169.39Z"/>
    <path class="cls-2" d="M571.15,162.1c-.14-2.81-.32-6.19-.29-8.7h-.09c-.69,2.36-1.53,4.87-2.54,7.65l-3.56,9.78h-2l-3.25-9.6c-1-2.84-1.77-5.44-2.33-7.83h-.06c-.06,2.51-.21,5.89-.39,8.91l-.54,8.64h-2.48L555,150.8h3.32l3.44,9.74c.84,2.49,1.52,4.7,2,6.79h.09c.51-2,1.23-4.25,2.12-6.79l3.59-9.74H573L574.2,171h-2.54Z"/>
    <path class="cls-2" d="M592.88,171l-.21-1.83h-.09a5.37,5.37,0,0,1-4.42,2.16,4.13,4.13,0,0,1-4.43-4.16c0-3.5,3.11-5.41,8.7-5.38v-.3c0-1.2-.33-3.35-3.28-3.35a7.2,7.2,0,0,0-3.77,1.08l-.6-1.73a9,9,0,0,1,4.75-1.29c4.43,0,5.5,3,5.5,5.92v5.41a20.4,20.4,0,0,0,.24,3.47Zm-.39-7.39c-2.87-.06-6.13.45-6.13,3.26a2.33,2.33,0,0,0,2.49,2.51,3.59,3.59,0,0,0,3.49-2.42,2.76,2.76,0,0,0,.15-.84Z"/>
    <path class="cls-2" d="M605.85,161c0-1.7,0-3.17-.12-4.51H608l.09,2.84h.12a4.33,4.33,0,0,1,4-3.17,2.73,2.73,0,0,1,.74.09v2.48a3.81,3.81,0,0,0-.89-.09c-1.86,0-3.17,1.41-3.53,3.38a7.41,7.41,0,0,0-.12,1.22V171h-2.6Z"/>
    <path class="cls-2" d="M624.92,163.11H625c.36-.5.87-1.13,1.28-1.64l4.25-5h3.17l-5.59,6,6.36,8.52h-3.19l-5-6.94-1.34,1.5V171h-2.6V149.72h2.6Z"/>
    <path class="cls-2" d="M644.38,164.19c.06,3.56,2.33,5,5,5a9.44,9.44,0,0,0,4-.75l.45,1.89a11.72,11.72,0,0,1-4.81.89c-4.45,0-7.12-2.92-7.12-7.29s2.58-7.8,6.79-7.8c4.72,0,6,4.15,6,6.81a10,10,0,0,1-.09,1.23Zm7.71-1.88c0-1.68-.69-4.28-3.65-4.28-2.66,0-3.83,2.45-4,4.28Z"/>
    <path class="cls-2" d="M667.63,152.32v4.16h3.77v2h-3.77v7.8c0,1.8.51,2.81,2,2.81a5.87,5.87,0,0,0,1.53-.18l.12,2a6.5,6.5,0,0,1-2.34.35,3.65,3.65,0,0,1-2.84-1.1c-.74-.78-1-2.06-1-3.77v-7.89h-2.24v-2h2.24V153Z"/>
    <path class="cls-2" d="M683.86,152.41a1.63,1.63,0,0,1-3.26,0,1.6,1.6,0,0,1,1.64-1.64A1.56,1.56,0,0,1,683.86,152.41ZM680.93,171V156.48h2.63V171Z"/>
    <path class="cls-2" d="M694.5,160.39c0-1.49,0-2.72-.12-3.91h2.33l.15,2.39h.06a5.3,5.3,0,0,1,4.78-2.72c2,0,5.11,1.2,5.11,6.16V171h-2.63v-8.34c0-2.34-.87-4.28-3.35-4.28a3.73,3.73,0,0,0-3.52,2.69,3.8,3.8,0,0,0-.18,1.23V171H694.5Z"/>
    <path class="cls-2" d="M730.12,156.48c-.06,1-.12,2.21-.12,4v8.4c0,3.32-.65,5.35-2.06,6.61a7.64,7.64,0,0,1-5.26,1.73,9.29,9.29,0,0,1-4.81-1.19l.66-2a8.11,8.11,0,0,0,4.24,1.14c2.69,0,4.66-1.4,4.66-5v-1.62h-.06a5.15,5.15,0,0,1-4.6,2.43c-3.59,0-6.16-3-6.16-7.06,0-4.9,3.2-7.68,6.52-7.68a4.79,4.79,0,0,1,4.51,2.51h.06l.12-2.18Zm-2.72,5.71a3.85,3.85,0,0,0-3.82-4c-2.51,0-4.31,2.12-4.31,5.47,0,2.84,1.44,5.2,4.28,5.2a3.83,3.83,0,0,0,3.64-2.69,4.53,4.53,0,0,0,.21-1.4Z"/>
    <path class="cls-2" d="M753.58,167.78a9.31,9.31,0,0,0,4.67,1.31c2.66,0,4.21-1.4,4.21-3.44,0-1.88-1.08-3-3.8-4-3.28-1.17-5.32-2.87-5.32-5.71,0-3.14,2.6-5.47,6.52-5.47a9.1,9.1,0,0,1,4.45,1l-.71,2.12a8,8,0,0,0-3.83-1c-2.75,0-3.8,1.65-3.8,3,0,1.88,1.23,2.81,4,3.89,3.41,1.31,5.14,3,5.14,5.92s-2.3,5.79-7,5.79a10.34,10.34,0,0,1-5.14-1.28Z"/>
    <path class="cls-2" d="M788.43,163.59c0,5.35-3.7,7.69-7.2,7.69-3.92,0-6.94-2.88-6.94-7.45,0-4.84,3.17-7.68,7.18-7.68S788.43,159.17,788.43,163.59Zm-11.48.15c0,3.17,1.83,5.56,4.4,5.56s4.39-2.36,4.39-5.62c0-2.45-1.22-5.56-4.33-5.56S777,161,777,163.74Z"/>
    <path class="cls-2" d="M798.32,149.72H801V171h-2.63Z"/>
    <path class="cls-2" d="M824.06,167c0,1.49,0,2.81.12,3.95h-2.33l-.15-2.37h-.06a5.44,5.44,0,0,1-4.78,2.7c-2.28,0-5-1.26-5-6.34v-8.46h2.63v8c0,2.75.84,4.6,3.23,4.6a3.79,3.79,0,0,0,3.47-2.39,3.85,3.85,0,0,0,.24-1.34v-8.88h2.63Z"/>
    <path class="cls-2" d="M838.16,152.32v4.16h3.77v2h-3.77v7.8c0,1.8.51,2.81,2,2.81a5.85,5.85,0,0,0,1.52-.18l.12,2a6.44,6.44,0,0,1-2.33.35,3.63,3.63,0,0,1-2.84-1.1c-.75-.78-1-2.06-1-3.77v-7.89h-2.24v-2h2.24V153Z"/>
    <path class="cls-2" d="M854.39,152.41a1.63,1.63,0,0,1-3.25,0,1.6,1.6,0,0,1,1.64-1.64A1.56,1.56,0,0,1,854.39,152.41ZM851.46,171V156.48h2.63V171Z"/>
    <path class="cls-2" d="M878.12,163.59c0,5.35-3.7,7.69-7.2,7.69-3.91,0-6.93-2.88-6.93-7.45,0-4.84,3.16-7.68,7.17-7.68C875.32,156.15,878.12,159.17,878.12,163.59Zm-11.47.15c0,3.17,1.82,5.56,4.39,5.56s4.4-2.36,4.4-5.62c0-2.45-1.23-5.56-4.34-5.56S866.65,161,866.65,163.74Z"/>
    <path class="cls-2" d="M888,160.39c0-1.49,0-2.72-.12-3.91h2.33l.15,2.39h.06a5.3,5.3,0,0,1,4.78-2.72c2,0,5.11,1.2,5.11,6.16V171H897.7v-8.34c0-2.34-.87-4.28-3.35-4.28a3.73,3.73,0,0,0-3.52,2.69,3.8,3.8,0,0,0-.18,1.23V171H888Z"/>
    <path class="cls-2" d="M910.82,168.26a7,7,0,0,0,3.47,1c1.91,0,2.81-1,2.81-2.15s-.75-1.94-2.69-2.66c-2.6-.93-3.83-2.36-3.83-4.1,0-2.33,1.88-4.24,5-4.24a7.21,7.21,0,0,1,3.56.9l-.66,1.91a5.61,5.61,0,0,0-3-.84c-1.55,0-2.42.9-2.42,2s.87,1.73,2.75,2.45c2.51.95,3.8,2.21,3.8,4.36,0,2.54-2,4.33-5.41,4.33a8.24,8.24,0,0,1-4.07-1Z"/>
  </g>
  <line class="cls-3" x1="287.74" y1="72.73" x2="287.74" y2="190.52"/>
  <g>
    <path class="cls-4" d="M218.23,131.76c0-46.75-22-84.74-49.29-84.74-12.66,0-24.16,8.37-32.92,22,39.94-51,62.73,31,62.73,62.73,0,42.67-15.39,77.93-38.19,77.35-10.13-.2-24.74-13.05-33.7-33.32,8.77,24.36,24.35,40.53,42.08,40.53C196.22,216.32,218.23,178.52,218.23,131.76Z"/>
    <g>
      <path class="cls-5" d="M141.08,100a112.52,112.52,0,0,0-5.45-13.25,74.44,74.44,0,0,0-15,39.74A83.28,83.28,0,0,1,141.08,100Z"/>
      <path class="cls-6" d="M142.45,104.1a77.23,77.23,0,0,0-18.9,25.72h22.6A104.42,104.42,0,0,0,142.45,104.1Z"/>
      <path class="cls-7" d="M146.15,133.71h-22.6a76.62,76.62,0,0,0,18.7,25.52A103.94,103.94,0,0,0,146.15,133.71Z"/>
      <path class="cls-8" d="M140.89,163.33A84,84,0,0,1,120.63,137a73.66,73.66,0,0,0,14.8,39.55A86.9,86.9,0,0,0,140.89,163.33Z"/>
      <path class="cls-9" d="M144.2,166.05a123.36,123.36,0,0,1-6,13.84,67.57,67.57,0,0,0,18.9,16,102,102,0,0,0,10.13-17.14,82.08,82.08,0,0,1-17.93-9.16C147.51,168.39,145.76,167.22,144.2,166.05Z"/>
      <path class="cls-10" d="M145.56,162a66.1,66.1,0,0,0,5.85,4.29A74.13,74.13,0,0,0,168.94,175a108.49,108.49,0,0,0,8.77-41.31H150A106.54,106.54,0,0,1,145.56,162Z"/>
      <path class="cls-11" d="M150,129.82h27.67a109.39,109.39,0,0,0-8.77-41.5,92,92,0,0,0-17.53,8.77c-1.95,1.36-3.9,2.72-5.85,4.28A99.33,99.33,0,0,1,150,129.82Z"/>
      <path class="cls-12" d="M149.26,93.77a81.46,81.46,0,0,1,17.93-9,104.12,104.12,0,0,0-10.13-17.34,76.78,76.78,0,0,0-18.71,15.78,143.6,143.6,0,0,1,6,14C146,96.11,147.51,94.94,149.26,93.77Z"/>
      <path class="cls-13" d="M185.5,183a70.73,70.73,0,0,1-14.42-3.11,110,110,0,0,1-10.52,17.92,67.56,67.56,0,0,0,10.14,4.48C177.51,198.2,182.38,190,185.5,183Z"/>
      <path class="cls-14" d="M172.64,176.38a72.82,72.82,0,0,0,14.42,2.73c5.26-14,7.4-30.4,7.6-45.4H181.8A115.6,115.6,0,0,1,172.64,176.38Z"/>
      <path class="cls-15" d="M181.8,129.82h12.86c-.2-11.5-2.92-24.55-6.24-35.27-.78-2.73-1.94-6.23-3.31-9.93a67.42,67.42,0,0,0-12.47,2.53A115.55,115.55,0,0,1,181.8,129.82Z"/>
      <path class="cls-16" d="M171.08,83.45a88.46,88.46,0,0,1,12.47-2.73c-3.11-7.21-7.4-15-12.66-19.68a84.63,84.63,0,0,0-10.33,4.48A118.77,118.77,0,0,1,171.08,83.45Z"/>
    </g>
    <path class="cls-17" d="M245.31,146.77a52.1,52.1,0,0,1-31.95,34.09,88.42,88.42,0,0,1-4.48,9.74A84.15,84.15,0,0,1,198,206.38a75,75,0,0,0,70.33-59.61,76.52,76.52,0,0,0,1.56-15c0-2.53-.19-4.87-.39-7.2H222.13c0,2.33.19,4.87.19,7.2,0,4.87-.39,9.94-.78,15Z"/>
    <path class="cls-18" d="M238.49,102.35h25.33A74.31,74.31,0,0,0,198,57.15a78.13,78.13,0,0,1,10.91,15.78,87.58,87.58,0,0,1,4.48,9.74A51.26,51.26,0,0,1,238.49,102.35Z"/>
  </g>
</svg>
