<svg xmlns="http://www.w3.org/2000/svg" viewBox="0 0 500 500"><g id="freepik--Shadow--inject-101"><ellipse id="freepik--path--inject-101" cx="245.18" cy="412.39" rx="193.89" ry="11.32" style="fill:#f5f5f5"></ellipse></g><g id="freepik--Graphics--inject-101"><path d="M113.55,186.34h-37A5.73,5.73,0,0,1,70.74,180l7.74-88.46a7,7,0,0,1,6.81-6.27h9.62a1.63,1.63,0,0,1,1.65,1.57v.3a2.26,2.26,0,0,0,2.3,2.19H108A2.9,2.9,0,0,0,110.79,87l.07-.3a1.88,1.88,0,0,1,1.82-1.49h9.63a5.79,5.79,0,0,1,4.32,1.86,5.85,5.85,0,0,1,1.48,4.49l-7.75,88.47A7,7,0,0,1,113.55,186.34ZM85.29,86.25a6,6,0,0,0-5.82,5.35l-7.74,88.47a4.74,4.74,0,0,0,4.8,5.27h37a6,6,0,0,0,5.82-5.36l7.74-88.46a4.86,4.86,0,0,0-1.22-3.74,4.79,4.79,0,0,0-3.58-1.53h-9.63a.89.89,0,0,0-.84.7l-.07.3A3.91,3.91,0,0,1,108,90.31H98.87a3.24,3.24,0,0,1-3.3-3.15v-.3a.63.63,0,0,0-.65-.61Z" style="fill:#407BFF"></path><rect x="78.27" y="99.14" width="48.63" height="1" style="fill:#407BFF"></rect><rect x="112.68" y="85.25" width="9.62" height="1" style="fill:#407BFF"></rect><path d="M113.26,140.47H84.88l2.48-28.38h28.38Zm-27.29-1h26.37l2.31-26.38H88.28Z" style="fill:#407BFF"></path><path d="M113.6,172.52H78.82L79.74,162h34.78Zm-33.69-1h32.77l.75-8.53H80.65Z" style="fill:#407BFF"></path><path d="M90.72,155.06A2.74,2.74,0,0,1,88,152a3.28,3.28,0,0,1,3.21-2.94,2.74,2.74,0,0,1,2.06.89,2.78,2.78,0,0,1,.7,2.14h0A3.28,3.28,0,0,1,90.72,155.06Zm.44-5a2.27,2.27,0,0,0-2.21,2,1.74,1.74,0,0,0,.45,1.38,1.77,1.77,0,0,0,1.32.56,2.27,2.27,0,0,0,2.21-2h0a1.84,1.84,0,0,0-.45-1.38A1.77,1.77,0,0,0,91.16,150.09Z" style="fill:#407BFF"></path><path d="M97.91,155.06a2.72,2.72,0,0,1-2.76-3,3.27,3.27,0,0,1,3.2-2.94,2.75,2.75,0,0,1,2.77,3A3.29,3.29,0,0,1,97.91,155.06Zm.44-5a2.27,2.27,0,0,0-2.21,2,1.74,1.74,0,0,0,1.77,1.94,2.27,2.27,0,0,0,2.21-2h0a1.74,1.74,0,0,0-1.77-1.94Z" style="fill:#407BFF"></path><path d="M105.11,155.06a2.78,2.78,0,0,1-2.07-.88,2.81,2.81,0,0,1-.7-2.15,3.28,3.28,0,0,1,3.2-2.94,2.71,2.71,0,0,1,2.06.89,2.75,2.75,0,0,1,.71,2.14h0A3.28,3.28,0,0,1,105.11,155.06Zm.43-5a2.27,2.27,0,0,0-2.21,2,1.81,1.81,0,0,0,.45,1.38,1.77,1.77,0,0,0,1.33.56,2.26,2.26,0,0,0,2.2-2h0a1.74,1.74,0,0,0-1.77-1.94Z" style="fill:#407BFF"></path><rect x="354.25" y="286.54" width="48.63" height="1" style="fill:#407BFF"></rect><path d="M389.5,373.74h-37a5.74,5.74,0,0,1-5.8-6.35l7.74-88.47a7,7,0,0,1,6.82-6.27h9.62a1.62,1.62,0,0,1,1.64,1.58l0,.3a2.25,2.25,0,0,0,2.29,2.19H384a2.91,2.91,0,0,0,2.78-2.28l.06-.3a1.92,1.92,0,0,1,1.83-1.49h9.62a5.76,5.76,0,0,1,4.32,1.86,5.82,5.82,0,0,1,1.48,4.5l-7.74,88.46A7,7,0,0,1,389.5,373.74ZM361.25,273.65a6,6,0,0,0-5.82,5.36l-7.74,88.46a4.82,4.82,0,0,0,1.22,3.74,4.76,4.76,0,0,0,3.58,1.53h37a6,6,0,0,0,5.82-5.35l7.74-88.47a4.74,4.74,0,0,0-4.8-5.27h-9.62a.91.91,0,0,0-.85.7l-.06.3a3.93,3.93,0,0,1-3.76,3.07h-9.15a3.24,3.24,0,0,1-3.29-3.15l0-.3a.62.62,0,0,0-.64-.62Z" style="fill:#407BFF"></path><path d="M395.71,300.44H359.17a2.65,2.65,0,0,1-2.67-2.93,3.16,3.16,0,0,1,3.08-2.84h36.55a2.65,2.65,0,0,1,2,.86,2.7,2.7,0,0,1,.69,2.07A3.17,3.17,0,0,1,395.71,300.44Zm-36.13-4.77a2.15,2.15,0,0,0-2.09,1.93,1.67,1.67,0,0,0,.43,1.3,1.63,1.63,0,0,0,1.25.54h36.54a2.15,2.15,0,0,0,2.09-1.93,1.71,1.71,0,0,0-.42-1.3,1.66,1.66,0,0,0-1.25-.54Z" style="fill:#407BFF"></path><path d="M394.88,310H358.33a2.65,2.65,0,0,1-2-.86,2.68,2.68,0,0,1-.68-2.06,3.16,3.16,0,0,1,3.09-2.84h36.54a2.63,2.63,0,0,1,2.67,2.92A3.15,3.15,0,0,1,394.88,310Zm-36.13-4.76a2.14,2.14,0,0,0-2.09,1.92,1.73,1.73,0,0,0,.42,1.31,1.69,1.69,0,0,0,1.25.53h36.55A2.15,2.15,0,0,0,397,307a1.7,1.7,0,0,0-.43-1.31,1.66,1.66,0,0,0-1.25-.53Z" style="fill:#407BFF"></path><path d="M394,319.48H357.5a2.63,2.63,0,0,1-2.67-2.92,3.17,3.17,0,0,1,3.09-2.84h36.54a2.65,2.65,0,0,1,2.67,2.93A3.16,3.16,0,0,1,394,319.48Zm-36.12-4.76a2.15,2.15,0,0,0-2.09,1.93,1.64,1.64,0,0,0,1.67,1.83H394a2.14,2.14,0,0,0,2.09-1.92,1.64,1.64,0,0,0-1.67-1.84Z" style="fill:#407BFF"></path><path d="M391.76,345.58H355.22a2.65,2.65,0,0,1-2.67-2.93,3.15,3.15,0,0,1,3.08-2.83h36.55a2.63,2.63,0,0,1,2.67,2.92A3.17,3.17,0,0,1,391.76,345.58Zm-36.13-4.76a2.15,2.15,0,0,0-2.09,1.92A1.67,1.67,0,0,0,354,344a1.63,1.63,0,0,0,1.25.54h36.54a2.15,2.15,0,0,0,2.09-1.93,1.67,1.67,0,0,0-.42-1.3,1.65,1.65,0,0,0-1.25-.53Z" style="fill:#407BFF"></path><path d="M390.93,355.1H354.38a2.64,2.64,0,0,1-2-.85,2.71,2.71,0,0,1-.69-2.07,3.17,3.17,0,0,1,3.09-2.84h36.54a2.65,2.65,0,0,1,2.67,2.92A3.15,3.15,0,0,1,390.93,355.1Zm-36.13-4.76a2.14,2.14,0,0,0-2.09,1.92,1.73,1.73,0,0,0,.42,1.31,1.69,1.69,0,0,0,1.25.53h36.55a2.14,2.14,0,0,0,2.09-1.92,1.7,1.7,0,0,0-.43-1.31,1.66,1.66,0,0,0-1.25-.53Z" style="fill:#407BFF"></path><path d="M390.09,364.62H353.55a2.63,2.63,0,0,1-2.67-2.92,3.17,3.17,0,0,1,3.09-2.84h36.54a2.65,2.65,0,0,1,2.67,2.93A3.16,3.16,0,0,1,390.09,364.62ZM354,359.86a2.15,2.15,0,0,0-2.09,1.93,1.64,1.64,0,0,0,1.67,1.83h36.54a2.16,2.16,0,0,0,2.1-1.92,1.67,1.67,0,0,0-.43-1.3,1.65,1.65,0,0,0-1.25-.54Z" style="fill:#407BFF"></path><path d="M413.56,193.9h-37a5.76,5.76,0,0,1-4.32-1.85,5.86,5.86,0,0,1-1.48-4.5l7.74-88.47a7,7,0,0,1,6.82-6.26h9.62a1.62,1.62,0,0,1,1.65,1.57v.3a2.26,2.26,0,0,0,2.3,2.19H408a2.91,2.91,0,0,0,2.78-2.27l.07-.31a1.87,1.87,0,0,1,1.82-1.48h9.62a5.72,5.72,0,0,1,5.8,6.35l-7.74,88.47A7,7,0,0,1,413.56,193.9ZM385.3,93.82a6,6,0,0,0-5.82,5.35l-7.74,88.47a4.74,4.74,0,0,0,4.8,5.26h37a6,6,0,0,0,5.82-5.35l7.74-88.47a4.74,4.74,0,0,0-4.81-5.26h-9.62a.9.9,0,0,0-.85.69l-.06.31A3.94,3.94,0,0,1,408,97.88h-9.14a3.24,3.24,0,0,1-3.3-3.15v-.3a.63.63,0,0,0-.65-.61Z" style="fill:#407BFF"></path><rect x="378.27" y="106.71" width="48.63" height="1" style="fill:#407BFF"></rect><path d="M415.92,183.57H376.56L379,155.19H418.4Zm-38.27-1H415l2.31-26.38H380Z" style="fill:#407BFF"></path><rect x="396.98" y="146.78" width="1" height="45.19" transform="translate(21.95 383.06) rotate(-52.72)" style="fill:#407BFF"></rect><rect x="372.94" y="168.88" width="49.09" height="1" transform="translate(-26.92 250.43) rotate(-33.89)" style="fill:#407BFF"></rect><path d="M421.07,124.74H381.71l.92-10.52H422Zm-38.27-1h37.35l.75-8.52H383.55Z" style="fill:#407BFF"></path><rect x="381.68" y="118.98" width="40.33" height="1" transform="translate(-16.85 98.35) rotate(-13.67)" style="fill:#407BFF"></rect><rect x="401.35" y="100.12" width="1" height="38.71" transform="translate(187.18 479.58) rotate(-75.76)" style="fill:#407BFF"></rect><path d="M419.87,138.43H380.51l.92-10.53h39.36Zm-38.27-1H419l.75-8.53H382.35Z" style="fill:#407BFF"></path><rect x="380.49" y="132.67" width="40.33" height="1" transform="translate(-20.12 98.46) rotate(-13.67)" style="fill:#407BFF"></rect><rect x="400.15" y="113.81" width="1" height="38.71" transform="translate(173.01 488.74) rotate(-75.76)" style="fill:#407BFF"></rect><path d="M418.67,152.12H379.31l.92-10.53h39.36Zm-38.27-1h37.36l.74-8.53H381.15Z" style="fill:#407BFF"></path><rect x="379.29" y="146.35" width="40.33" height="1" transform="translate(-23.39 98.56) rotate(-13.67)" style="fill:#407BFF"></rect><rect x="398.95" y="127.5" width="1" height="38.71" transform="translate(158.84 497.9) rotate(-75.76)" style="fill:#407BFF"></rect><path d="M407.88,239.39a16,16,0,1,1,16-16A16,16,0,0,1,407.88,239.39Zm0-31a15,15,0,1,0,15,15A15,15,0,0,0,407.88,208.41Z" style="fill:#407BFF"></path><path d="M405.12,232.65l-7.46-9.86.8-.61,6.26,8.29a44.57,44.57,0,0,1,16.74-23l2.23-1.57.57.82L422,208.31a43.51,43.51,0,0,0-16.64,23.38Z" style="fill:#407BFF"></path></g><g id="freepik--Device--inject-101"><path d="M297.17,107.79h-26L245,407.1h26a24.26,24.26,0,0,0,23.7-21.79l22.38-255.73A19.66,19.66,0,0,0,297.17,107.79Z" style="fill:#263238"></path><path d="M265.67,407.1h-107a19.65,19.65,0,0,1-19.88-21.79l22.37-255.73a24.26,24.26,0,0,1,23.7-21.79h107a19.65,19.65,0,0,1,19.89,21.79L289.37,385.31A24.27,24.27,0,0,1,265.67,407.1Z" style="fill:#407BFF"></path><path d="M291.41,112.79H263.6a4,4,0,0,0-3.86,3.16l-.19.87a9.86,9.86,0,0,1-9.44,7.72H223.67a7.94,7.94,0,0,1-8.09-7.72l0-.87a3.26,3.26,0,0,0-3.32-3.16H184.42a18.7,18.7,0,0,0-18.26,16.79L143.79,385.31a15.14,15.14,0,0,0,15.32,16.79h107a18.71,18.71,0,0,0,18.27-16.79l22.37-255.73A15.14,15.14,0,0,0,291.41,112.79Z" style="fill:#fff"></path><g style="opacity:0.2"><path d="M231.2,115.62a2.36,2.36,0,0,1-2.31,2.13,1.92,1.92,0,0,1-1.94-2.13,2.36,2.36,0,0,1,2.31-2.12A1.92,1.92,0,0,1,231.2,115.62Z"></path><path d="M246.45,113.5h-7.28a2.36,2.36,0,0,0-2.31,2.12,1.91,1.91,0,0,0,1.93,2.13h7.29a2.36,2.36,0,0,0,2.31-2.13A1.91,1.91,0,0,0,246.45,113.5Z"></path></g><polygon points="178.25 124.5 180.5 124.5 180.7 122.25 178.45 122.25 178.25 124.5" style="fill:#263238"></polygon><polygon points="182.95 122.25 182.75 124.5 185 124.5 185.2 122.25 185.39 120 183.14 120 182.95 122.25" style="fill:#263238"></polygon><polygon points="187.84 117.75 187.64 120 187.45 122.25 187.25 124.5 189.5 124.5 189.7 122.25 189.89 120 190.09 117.75 187.84 117.75" style="fill:#263238"></polygon><path d="M284.58,117.9l-.14,1.65h-1.1l-.29,3.3h1.1L284,124.5h9.9l.57-6.6Zm4,4.95h-3.3l.29-3.3h3.3Z" style="fill:#263238"></path><polygon points="280.1 296.25 135.38 296.25 147.56 157.09 292.27 157.09 280.1 296.25" style="fill:#263238;opacity:0.8"></polygon><polygon points="276.27 292.06 131.56 292.06 143.73 152.9 288.45 152.9 276.27 292.06" style="fill:#407BFF"></polygon><g style="opacity:0.8"><polygon points="276.27 292.06 131.56 292.06 143.73 152.9 288.45 152.9 276.27 292.06" style="fill:#fff"></polygon><path d="M276.73,292.56H131l.05-.55L143.28,152.4H289Zm-144.63-1H275.81L287.9,153.4H144.19Z" style="fill:#407BFF"></path></g><polygon points="268.22 253.73 146.32 253.73 154.11 164.67 276.01 164.67 268.22 253.73" style="fill:#fff;opacity:0.8"></polygon><path d="M268.68,254.23H145.77l7.88-90.06H276.56Zm-121.82-1h120.9l7.7-88.06H154.57Z" style="fill:#407BFF"></path><rect x="210.66" y="136.82" width="1" height="144.75" transform="translate(-83.67 246.94) rotate(-52.03)" style="fill:#407BFF"></rect><line x1="146.32" y1="253.73" x2="276.01" y2="164.67" style="fill:#fff"></line><rect x="132.5" y="208.7" width="157.33" height="1" transform="translate(-81.35 156.38) rotate(-34.5)" style="fill:#407BFF"></rect><path d="M193.58,266.77a5.12,5.12,0,0,1-5,4.6,4.15,4.15,0,0,1-4.2-4.6,5.13,5.13,0,0,1,5-4.6A4.15,4.15,0,0,1,193.58,266.77Z" style="fill:#407BFF"></path><path d="M210.72,266.77a5.12,5.12,0,0,1-5,4.6,4.15,4.15,0,0,1-4.19-4.6,5.12,5.12,0,0,1,5-4.6A4.14,4.14,0,0,1,210.72,266.77Z" style="fill:#407BFF"></path><path d="M227.87,266.77a5.12,5.12,0,0,1-5,4.6,4.14,4.14,0,0,1-4.19-4.6,5.12,5.12,0,0,1,5-4.6A4.15,4.15,0,0,1,227.87,266.77Z" style="fill:#407BFF"></path><polygon points="192.46 370.45 124.7 370.45 130.4 305.29 198.16 305.29 192.46 370.45" style="fill:#407BFF"></polygon><g style="opacity:0.8"><polygon points="192.46 370.45 124.7 370.45 130.4 305.29 198.16 305.29 192.46 370.45" style="fill:#fff"></polygon><path d="M192.92,371H124.15l5.79-66.16h68.77Zm-67.67-1H192l5.61-64.16H130.86Z" style="fill:#407BFF"></path></g><polygon points="188.69 352.5 131.61 352.5 135.26 310.8 192.34 310.8 188.69 352.5" style="fill:#fff"></polygon><path d="M189.15,353H131.07l3.73-42.7h58.08Zm-57-1h56.07l3.56-40.7H135.72Z" style="fill:#407BFF"></path><line x1="135.26" y1="310.8" x2="188.69" y2="352.5" style="fill:#fff"></line><rect x="161.47" y="297.76" width="1" height="67.78" transform="translate(-199.13 255.28) rotate(-52.03)" style="fill:#407BFF"></rect><line x1="131.61" y1="352.5" x2="192.34" y2="310.8" style="fill:#fff"></line><rect x="125.14" y="331.15" width="73.67" height="1" transform="translate(-159.35 150.05) rotate(-34.5)" style="fill:#407BFF"></rect><path d="M153.74,358.61a2.39,2.39,0,0,1-2.34,2.15,1.93,1.93,0,0,1-2-2.15,2.4,2.4,0,0,1,2.34-2.16A2,2,0,0,1,153.74,358.61Z" style="fill:#407BFF"></path><path d="M161.77,358.61a2.4,2.4,0,0,1-2.34,2.15,1.94,1.94,0,0,1-2-2.15,2.41,2.41,0,0,1,2.34-2.16A2,2,0,0,1,161.77,358.61Z" style="fill:#407BFF"></path><path d="M169.8,358.61a2.4,2.4,0,0,1-2.34,2.15,1.94,1.94,0,0,1-2-2.15,2.4,2.4,0,0,1,2.34-2.16A2,2,0,0,1,169.8,358.61Z" style="fill:#407BFF"></path><polygon points="269.41 370.45 201.65 370.45 207.35 305.29 275.11 305.29 269.41 370.45" style="fill:#407BFF"></polygon><g style="opacity:0.8"><polygon points="269.41 370.45 201.65 370.45 207.35 305.29 275.11 305.29 269.41 370.45" style="fill:#fff"></polygon><path d="M269.87,371H201.11l5.79-66.16h68.76Zm-67.67-1H269l5.62-64.16H207.81Z" style="fill:#407BFF"></path></g><polygon points="265.64 352.5 208.56 352.5 212.21 310.8 269.29 310.8 265.64 352.5" style="fill:#fff"></polygon><path d="M266.1,353H208l3.73-42.7h58.09Zm-57-1h56.07l3.56-40.7H212.67Z" style="fill:#407BFF"></path><line x1="212.21" y1="310.8" x2="265.64" y2="352.5" style="fill:#fff"></line><rect x="238.43" y="297.76" width="1" height="67.78" transform="translate(-169.52 315.94) rotate(-52.03)" style="fill:#407BFF"></rect><line x1="208.56" y1="352.5" x2="269.29" y2="310.8" style="fill:#fff"></line><rect x="202.09" y="331.15" width="73.67" height="1" transform="translate(-145.82 193.64) rotate(-34.5)" style="fill:#407BFF"></rect><path d="M230.69,358.61a2.39,2.39,0,0,1-2.34,2.15,1.93,1.93,0,0,1-2-2.15,2.4,2.4,0,0,1,2.34-2.16A1.94,1.94,0,0,1,230.69,358.61Z" style="fill:#407BFF"></path><path d="M238.72,358.61a2.39,2.39,0,0,1-2.34,2.15,1.93,1.93,0,0,1-2-2.15,2.4,2.4,0,0,1,2.34-2.16A1.94,1.94,0,0,1,238.72,358.61Z" style="fill:#407BFF"></path><path d="M246.75,358.61a2.39,2.39,0,0,1-2.34,2.15,1.94,1.94,0,0,1-2-2.15,2.41,2.41,0,0,1,2.35-2.16A2,2,0,0,1,246.75,358.61Z" style="fill:#407BFF"></path><polygon points="268.2 147.13 196.58 147.13 197.42 137.53 269.04 137.53 268.2 147.13" style="fill:#407BFF"></polygon><rect x="177.6" y="144.98" width="11.07" height="1" style="fill:#263238"></rect><rect x="177.92" y="141.24" width="11.07" height="1" style="fill:#263238"></rect><rect x="178.25" y="137.5" width="11.07" height="1" style="fill:#263238"></rect><g style="opacity:0.2"><path d="M223.75,124.54,149.89,399.17a15.52,15.52,0,0,0,9.22,2.93h5.78l74.64-277.56Z" style="fill:#fff"></path><path d="M291.41,112.79H263.6a4,4,0,0,0-3.86,3.16l-.19.87a9.88,9.88,0,0,1-9.1,7.71L175.8,402.1h56.94l74-275.17A15.07,15.07,0,0,0,291.41,112.79Z" style="fill:#fff"></path></g><rect x="165.9" y="131.85" width="140.53" height="1.5" style="fill:#407BFF"></rect></g><g id="freepik--character-2--inject-101"><path d="M318.68,167.92a2.07,2.07,0,0,1,.59-.83,2,2,0,0,1,.75-.25,13.5,13.5,0,0,1,6.12-.2.74.74,0,0,1,.4.21.7.7,0,0,1,.11.37c.16,1.13.31,2.26.46,3.38a1.16,1.16,0,0,1-.49,1.33,34.81,34.81,0,0,1-5.7,3.57c-1,.2-4.08-.8-5-1.19S317.78,169.79,318.68,167.92Z" style="fill:#cb7a63"></path><path d="M296.19,202.21c.9-7.13,16.83-26.36,18.93-29.14,1.16-1.55,6-.4,7,2.54-4.35,6-6.75,11.13-9.72,17.95a102.42,102.42,0,0,1-4.89,9.2C299.43,214,295.8,205.31,296.19,202.21Z" style="fill:#407BFF"></path><g style="opacity:0.1;isolation:isolate"><path d="M296.19,202.21c.9-7.13,16.83-26.36,18.93-29.14,1.16-1.55,6-.4,7,2.54-4.35,6-6.75,11.13-9.72,17.95a102.42,102.42,0,0,1-4.89,9.2C299.43,214,295.8,205.31,296.19,202.21Z"></path></g><path d="M353.65,219.21s-5.06.07-6.64,1.46l-2.19,1.94a1,1,0,0,0-.07,1.47c1.18,1.33,3.76,3.92,6.65,4.94a1.93,1.93,0,0,0,1.91-.33s3.5-4.38,2.94-5.28Z" style="fill:#cb7a63"></path><path d="M367,219.69c-.45.25-.91.49-1.39.74l-7.15,2.65c-4.87,2.38-5.24-3.63-5.24-3.63l1.95-1.69,13.28-11s-12.36-9.16-20.36-16.88c-6-6.95-5.24-11.48,1.85-10.72,5.09.54,28.45,22.36,30.48,24.69S377.84,213.75,367,219.69Z" style="fill:#407BFF"></path><path d="M367,219.69c-.45.25-.91.49-1.39.74l-7.15,2.65c-4.87,2.38-5.24-3.63-5.24-3.63l1.95-1.69,13.28-11s-12.36-9.16-20.36-16.88c-6-6.95-5.24-11.48,1.85-10.72,5.09.54,28.45,22.36,30.48,24.69S377.84,213.75,367,219.69Z" style="opacity:0.1;isolation:isolate"></path><path d="M370.83,195.63l-.11-.12Z" style="fill:#263238"></path><g id="freepik--group--inject-101"><path d="M324.61,151c-.41-.07-.83.36-.95,1s.1,1.2.51,1.27.84-.36,1-1S325,151,324.61,151Z" style="fill:#263238"></path><path d="M323.51,159.19a3.6,3.6,0,0,1-2.87-1.13,22.82,22.82,0,0,0,4-4.76Z" style="fill:#b74d3c"></path><path d="M327.82,149.14a3,3,0,0,0-2.51-1h0l-.12,0a.37.37,0,0,1-.38-.37.38.38,0,0,1,.37-.39,3.71,3.71,0,0,1,3.17,1.2.46.46,0,0,1,.1.25.4.4,0,0,1-.63.32Z" style="fill:#263238"></path><path d="M332.71,186.9c10.69-.11,12.21-6,12.21-6-3.24-3-3.52-8.74-2.95-13.84a11.78,11.78,0,0,1-3.11,3.11,9.77,9.77,0,0,1-7.8,1.56.33.33,0,0,1-.13,0,2.84,2.84,0,0,1,.06.31c.72,4.06.25,8.43-4,9.79C327,181.83,320.94,187,332.71,186.9Z" style="fill:#cb7a63"></path><path d="M330.6,170.23c.12.49.25,1,.33,1.5a.33.33,0,0,0,.13,0,9.77,9.77,0,0,0,7.8-1.56A11.78,11.78,0,0,0,342,167.1c.14-1.29.35-2.56.56-3.72L331,170Z" style="fill:#cb7a63"></path><path d="M346,180.48s-1.61-4.65-3.93-6.08-12.33.31-13.89,1-3.07,4.31-3.07,4.31Z" style="fill:#407BFF"></path><path d="M346,180.48s-1.61-4.65-3.93-6.08-12.33.31-13.89,1-3.07,4.31-3.07,4.31Z" style="fill:#fff;opacity:0.8"></path><path d="M332.9,410.37c-1,0-1.89-.13-2.2-.57a.66.66,0,0,1,0-.77.9.9,0,0,1,.58-.41c1.25-.35,3.87,1.14,4,1.2a.18.18,0,0,1,.08.18.17.17,0,0,1-.15.15A13.81,13.81,0,0,1,332.9,410.37Zm-1.18-1.45a1,1,0,0,0-.34,0,.52.52,0,0,0-.36.25c-.12.22-.08.32,0,.39.35.48,2.25.49,3.64.29a7.94,7.94,0,0,0-2.94-1Z" style="fill:#407BFF"></path><path d="M335.17,410.13h-.07c-.91-.41-2.69-2-2.54-2.87,0-.2.17-.45.66-.5a1.33,1.33,0,0,1,1,.3c1,.79,1.15,2.8,1.16,2.89a.19.19,0,0,1-.08.16A.19.19,0,0,1,335.17,410.13Zm-1.81-3h-.1c-.32,0-.34.16-.35.2-.09.51,1.12,1.78,2,2.34a4.22,4.22,0,0,0-1-2.31,1,1,0,0,0-.63-.26Z" style="fill:#407BFF"></path><polygon points="342.77 392.68 335.3 392.69 335.93 409.95 343.44 409.94 342.77 392.68" style="fill:#cb7a63"></polygon><path d="M334.16,409.67c-5.11,3.14-6.68,3.28-12.58,4.58-1.29.28-.48,3.41,2.62,3.4,5.11,0,5.65-.25,10-.25,3.73,0,8,.16,11,.2a1.18,1.18,0,0,0,.27,0,1.1,1.1,0,0,0,.82-1.31l-1.46-6.67a.65.65,0,0,0-.64-.51H336A3.56,3.56,0,0,0,334.16,409.67Z" style="fill:#263238"></path><polygon points="342.78 392.69 343.12 402.32 335.62 402.33 335.3 392.7 342.78 392.69" style="opacity:0.2;isolation:isolate"></polygon><path d="M398.56,407.26a3.1,3.1,0,0,1,.36-2.34.72.72,0,0,1,.82-.06,1,1,0,0,1,.48.55c.48,1.26-.81,4.11-.87,4.25a.17.17,0,0,1-.18.11.19.19,0,0,1-.16-.14A13.76,13.76,0,0,1,398.56,407.26Zm1.4-1.36a1.47,1.47,0,0,0,0-.36.52.52,0,0,0-.29-.34c-.24-.1-.35-.05-.41,0-.46.41-.29,2.37.06,3.79a8.18,8.18,0,0,0,.68-3.12Z" style="fill:#407BFF"></path><path d="M399,409.58a.17.17,0,0,1,0-.07c.33-1,1.83-3,2.73-2.9.21,0,.49.14.59.63a1.33,1.33,0,0,1-.22,1.06c-.71,1.11-2.8,1.45-2.89,1.46a.15.15,0,0,1-.17-.06A.13.13,0,0,1,399,409.58Zm2.95-2.16v-.11c0-.33-.2-.34-.24-.34-.54,0-1.73,1.33-2.22,2.34a4.31,4.31,0,0,0,2.3-1.22,1,1,0,0,0,.21-.67Z" style="fill:#407BFF"></path><polygon points="393.68 392.57 386.39 393.1 390.69 410.5 398.03 409.97 393.68 392.57" style="fill:#cb7a63"></polygon><path d="M399.8,408.56c2.28,2.27,3.48,3.43,9.63,4.84,1.36.31.47,3.55-2.76,3.52-5.33-.06-2.41-.28-7-.32-3.89-.05-7.29,0-10.38,0a1.55,1.55,0,0,1-.31,0,1.16,1.16,0,0,1-.87-1.37l1.56-6.94a.67.67,0,0,1,.67-.52l7.48.17A2.69,2.69,0,0,1,399.8,408.56Z" style="fill:#263238"></path><polygon points="393.69 392.58 395.91 401.52 388.61 402.05 386.39 393.1 393.69 392.58" style="opacity:0.2;isolation:isolate"></polygon><path d="M354.15,241a77.78,77.78,0,0,1,6.92,13.91c4,10.82,2.58,16.49,3.92,23.81,2.35,12.91,5.88,22.81,8.35,32.6,7.71,30.63,24,85,24,85l-13.17,2.9s-24.42-64.86-31.35-86.77C346.58,292.77,330.55,241,330.55,241Z" style="fill:#407BFF"></path><path d="M354.15,241a77.78,77.78,0,0,1,6.92,13.91c4,10.82,2.58,16.49,3.92,23.81,2.35,12.91,5.88,22.81,8.35,32.6,7.71,30.63,24,85,24,85l-13.17,2.9s-24.42-64.86-31.35-86.77C346.58,292.77,330.55,241,330.55,241Z" style="opacity:0.4"></path><path d="M398.9,393.91l.14,4.69-15.87,1.71s-1.4-5.11-1.34-5.11Z" style="fill:#407BFF"></path><path d="M398.9,393.91l.14,4.69-15.87,1.71s-1.4-5.11-1.34-5.11Z" style="fill:#fff;opacity:0.8"></path><path d="M338,264.83c5.05,16.27,11.45,36.85,14.86,47.64.16.53.34,1.07.52,1.64-1.34-18-4.88-48.27-13.95-49.38A3.29,3.29,0,0,0,338,264.83Z" style="opacity:0.30000000000000004;isolation:isolate"></path><path d="M342,240.94s3.85,49.7,4.29,73.19c.4,21.9-1.21,85.7-1.21,85.7l-12.7,0s-6.06-65.13-8.31-87.37c-2.14-21.05-7.69-71.09-7.69-71.09Z" style="fill:#407BFF"></path><path d="M342,240.94s3.85,49.7,4.29,73.19c.4,21.9-1.21,85.7-1.21,85.7l-12.7,0s-6.06-65.13-8.31-87.37c-2.14-21.05-7.69-71.09-7.69-71.09Z" style="opacity:0.4"></path><path d="M347,395.38l-.43,4.66-15.44,0s-.73-5.22-.67-5.22Z" style="fill:#407BFF"></path><path d="M347,395.38l-.43,4.66-15.44,0s-.73-5.22-.67-5.22Z" style="fill:#fff;opacity:0.8"></path><path d="M366.62,256.81l-3.55-1a35,35,0,0,0-17.48-.52l-4.15-9.48,1.27,10-1.82,0a35,35,0,0,0-15.23,3.09,35.39,35.39,0,0,1-4.79,2c0-.3-4.47-19.41-4.47-19.41-4.55-31-3.81-46.69-2.44-54.33a10,10,0,0,1,8-8.08c1.55-.29,3.28-.56,5.06-.74a138.42,138.42,0,0,1,16-.16l3.54.26c5.59.29,11.32,5,10.31,10.55-3.35,18.32-3.91,31.71-3.68,40.54Z" style="fill:#407BFF"></path><path d="M313.11,212.13s-.11-15.27,0-18.1l11.37-7.82A108.56,108.56,0,0,0,313.11,212.13Z" style="opacity:0.2;isolation:isolate"></path><path d="M322.76,161.67a10.85,10.85,0,0,0,5.45,9h0a0,0,0,0,0,0,0,9.43,9.43,0,0,0,2.66,1.06.33.33,0,0,0,.13,0,9.77,9.77,0,0,0,7.8-1.56A11.78,11.78,0,0,0,342,167.1c2-2.91,2.83-6.77,4.22-12.19a10.65,10.65,0,0,0-12.41-13.22C325.68,143.3,322.46,154.45,322.76,161.67Z" style="fill:#cb7a63"></path><path d="M328.27,170.67a9.43,9.43,0,0,0,2.66,1.06s-.39-4.75-.39-4.75S328.84,170.66,328.27,170.67Z" style="opacity:0.2"></path><path d="M355.59,156.13c-.86,1.12-2,2.3-3.4,2.42a5.12,5.12,0,0,1-2.42-.38c-2.5,4.34-7.8,8.93-7.8,8.93a11.69,11.69,0,0,1-4.16.76,11.83,11.83,0,0,1-4.34-.83,8.19,8.19,0,0,0-.82-.31c-.39-.09-2.4-8.55-5.2-9.84l-.63-.3c.19-.89-.09-3.36.78-4.2.47-.46-.82-1.63-.72-2.52a1.43,1.43,0,0,1,0-.22c-.89-.56-1-1.77-.62-3,.85-3.22,2.55-2.34,2.55-2.34a3.65,3.65,0,0,1-.57-2.91c.35-1.84,3.79-2.76,3.79-2.76l1.23.24a4,4,0,0,1,2.78-.88,5.06,5.06,0,0,1,3.69,2.13,4.18,4.18,0,0,1,6.64,2.23,3.5,3.5,0,0,1,3.61,1,3.76,3.76,0,0,1,1,3.72,2.4,2.4,0,0,1,1.74,2.08,13.07,13.07,0,0,1-.25,3.11,4.79,4.79,0,0,0,.4,3A2.09,2.09,0,0,0,355.59,156.13Z" style="fill:#263238"></path><path d="M330.45,151.74c-2.23.7-3.33,4-3.39,6.14-.06,2.33,1.52,3.76,3.52,2.16a8.84,8.84,0,0,0,3-4.8C334.08,153,332.69,151,330.45,151.74Z" style="fill:#cb7a63"></path></g><path d="M311.33,186.81l-14.1,16c-2,4.53,4.81,9.53,9.59,5.1l16.92-19.49c1.23-2.67,1.39-4.86-.4-6.63C321,179.48,316.82,178,311.33,186.81Z" style="fill:#407BFF"></path></g></svg>