<svg id="Layer_1" data-name="Layer 1" xmlns="http://www.w3.org/2000/svg" xmlns:xlink="http://www.w3.org/1999/xlink" viewBox="0 0 1000 1000">
  <defs>
    <style>
      .cls-1, .cls-10, .cls-11, .cls-12, .cls-13, .cls-14, .cls-15, .cls-2, .cls-3, .cls-4, .cls-5, .cls-6, .cls-7, .cls-8, .cls-9 {
        fill-rule: evenodd;
      }

      .cls-1 {
        fill: url(#White_Black);
      }

      .cls-2 {
        fill: url(#linear-gradient);
      }

      .cls-3 {
        fill: url(#linear-gradient-2);
      }

      .cls-4 {
        fill: url(#linear-gradient-3);
      }

      .cls-5 {
        fill: url(#linear-gradient-4);
      }

      .cls-6 {
        fill: url(#linear-gradient-5);
      }

      .cls-7 {
        fill: url(#linear-gradient-6);
      }

      .cls-8 {
        fill: url(#linear-gradient-7);
      }

      .cls-9 {
        fill: url(#linear-gradient-8);
      }

      .cls-10 {
        fill: url(#linear-gradient-9);
      }

      .cls-11 {
        fill: url(#linear-gradient-10);
      }

      .cls-12 {
        fill: url(#linear-gradient-11);
      }

      .cls-13 {
        fill: url(#linear-gradient-12);
      }

      .cls-14 {
        fill: url(#linear-gradient-13);
      }

      .cls-15 {
        fill: url(#linear-gradient-14);
      }
    </style>
    <linearGradient id="White_Black" data-name="White, Black" x1="-396.13" y1="949.47" x2="-113.08" y2="949.47" gradientTransform="matrix(1, 0, 0, -1, 694, 1456.44)" gradientUnits="userSpaceOnUse">
      <stop offset="0" stop-color="#fff"/>
      <stop offset="1" stop-color="#231f20"/>
    </linearGradient>
    <linearGradient id="linear-gradient" x1="-406.85" y1="1024.48" x2="-193.66" y2="1024.48" gradientTransform="matrix(1, 0, 0, -1, 694, 1456.44)" gradientUnits="userSpaceOnUse">
      <stop offset="0" stop-color="#062c53"/>
      <stop offset="1" stop-color="#105ca0"/>
    </linearGradient>
    <linearGradient id="linear-gradient-2" x1="-406.85" y1="993.54" x2="-193.66" y2="993.54" xlink:href="#linear-gradient"/>
    <linearGradient id="linear-gradient-3" x1="-406.78" y1="905.1" x2="-193.59" y2="905.1" xlink:href="#linear-gradient"/>
    <linearGradient id="linear-gradient-4" x1="-406.84" y1="874.16" x2="-193.66" y2="874.17" xlink:href="#linear-gradient"/>
    <linearGradient id="linear-gradient-5" x1="-406.84" y1="801.77" x2="-193.66" y2="801.78" xlink:href="#linear-gradient"/>
    <linearGradient id="linear-gradient-6" x1="-406.84" y1="881.45" x2="-193.66" y2="881.46" xlink:href="#linear-gradient"/>
    <linearGradient id="linear-gradient-7" x1="-406.85" y1="1017.18" x2="-193.66" y2="1017.18" xlink:href="#linear-gradient"/>
    <linearGradient id="linear-gradient-8" x1="-406.85" y1="1097.15" x2="-193.67" y2="1097.16" xlink:href="#linear-gradient"/>
    <linearGradient id="linear-gradient-9" x1="-406.84" y1="771.42" x2="-193.66" y2="771.42" xlink:href="#linear-gradient"/>
    <linearGradient id="linear-gradient-10" x1="-406.84" y1="875.32" x2="-193.66" y2="875.33" xlink:href="#linear-gradient"/>
    <linearGradient id="linear-gradient-11" x1="-406.85" y1="1022.72" x2="-193.66" y2="1022.73" xlink:href="#linear-gradient"/>
    <linearGradient id="linear-gradient-12" x1="-406.85" y1="1127.51" x2="-193.67" y2="1127.51" xlink:href="#linear-gradient"/>
    <linearGradient id="linear-gradient-13" x1="510.22" y1="608.26" x2="725.62" y2="608.26" gradientTransform="matrix(1, 0, 0, 1, 0, 0)" xlink:href="#linear-gradient"/>
    <linearGradient id="linear-gradient-14" x1="510.22" y1="351.41" x2="707.52" y2="351.41" gradientTransform="matrix(1, 0, 0, 1, 0, 0)" xlink:href="#linear-gradient"/>
  </defs>
  <g>
    <path class="cls-1" d="M570.93,507.27c0-140.1-66-253.93-147.69-253.93-37.95,0-72.39,25.1-98.66,66,119.67-152.94,188,92.82,188,188,0,127.84-46.12,233.5-114.42,231.75-30.35-.58-74.13-39.11-101-99.82,26.27,73,73,121.42,126.1,121.42C505,760.62,570.93,647.37,570.93,507.27Z"/>
    <g>
      <path class="cls-2" d="M339.76,412.12a332.8,332.8,0,0,0-16.35-39.7c-25.68,33.28-41.44,74.72-45,119.09A249.83,249.83,0,0,1,339.76,412.12Z"/>
      <path class="cls-3" d="M343.85,424.38a231.53,231.53,0,0,0-56.63,77.05h67.72A311.43,311.43,0,0,0,343.85,424.38Z"/>
      <path class="cls-4" d="M354.94,513.11H287.22a229.78,229.78,0,0,0,56,76.47A311.23,311.23,0,0,0,354.94,513.11Z"/>
      <path class="cls-5" d="M339.18,601.84c-25.11-21.6-45.54-48.45-60.72-78.81a221,221,0,0,0,44.37,118.5A258.61,258.61,0,0,0,339.18,601.84Z"/>
      <path class="cls-6" d="M349.1,610A369.93,369.93,0,0,1,331,651.46a202.76,202.76,0,0,0,56.63,47.87C399.3,683,409.81,666.05,418,648a245.22,245.22,0,0,1-53.7-27.44C359,617,353.77,613.51,349.1,610Z"/>
      <path class="cls-7" d="M353.19,597.75c5.25,4.67,11.67,8.76,17.51,12.85a221.14,221.14,0,0,0,52.54,26.26A324.66,324.66,0,0,0,449.5,513.11H366.61A320.21,320.21,0,0,1,353.19,597.75Z"/>
      <path class="cls-8" d="M366.61,501.43H449.5a327.63,327.63,0,0,0-26.26-124.34,276.72,276.72,0,0,0-52.54,26.27c-5.84,4.09-11.68,8.18-17.51,12.85C361.94,443.64,366,472.25,366.61,501.43Z"/>
      <path class="cls-9" d="M364.28,393.44c16.34-11.09,34.44-19.85,53.7-26.85a309.83,309.83,0,0,0-30.35-52c-21,12.84-40.28,28.61-56,47.29a434.43,434.43,0,0,1,18.09,42C354.35,400.44,359,396.94,364.28,393.44Z"/>
      <path class="cls-10" d="M472.85,660.8a210.58,210.58,0,0,1-43.19-9.34,331.8,331.8,0,0,1-31.53,53.7,199.54,199.54,0,0,0,30.36,13.43C448.92,706.33,463.51,681.81,472.85,660.8Z"/>
      <path class="cls-11" d="M434.33,641a216.19,216.19,0,0,0,43.19,8.17c15.77-42,22.19-91.06,22.77-136H461.76C460.6,556.89,451.84,600.09,434.33,641Z"/>
      <path class="cls-12" d="M461.76,501.43h38.53c-.58-34.44-8.76-73.55-18.68-105.66-2.33-8.17-5.84-18.68-9.92-29.77-12.85,1.17-25.1,4.09-37.36,7.59C451.84,414.45,460.6,457.65,461.76,501.43Z"/>
      <path class="cls-13" d="M429.66,362.5A265.92,265.92,0,0,1,467,354.33c-9.34-21.6-22.19-44.95-37.95-59a247.24,247.24,0,0,0-30.94,13.42A359.25,359.25,0,0,1,429.66,362.5Z"/>
    </g>
    <path class="cls-14" d="M652.07,552.22a156.18,156.18,0,0,1-95.74,102.16c-4.08,9.92-8.17,19.84-13.42,29.18a253.63,253.63,0,0,1-32.69,47.29c103.9-4.09,190.3-79.39,210.73-178.63a230.13,230.13,0,0,0,4.67-45c0-7.59-.58-14.59-1.17-21.6H582.6c0,7,.58,14.6.58,21.6,0,14.59-1.16,29.77-2.33,45Z"/>
    <path class="cls-15" d="M631.64,419.12h75.88C674.25,341.48,599,286.61,510.22,283.69c12.84,14,23.93,30.94,32.69,47.29,5.25,9.34,9.34,19.26,13.42,29.19A153.82,153.82,0,0,1,631.64,419.12Z"/>
  </g>
</svg>
